<?xml version="1.0" encoding="utf-8"?>
<!-- Generator: Adobe Illustrator 24.3.0, SVG Export Plug-In . SVG Version: 6.00 Build 0)  -->
<svg version="1.1" id="Layer_1" xmlns="http://www.w3.org/2000/svg" xmlns:xlink="http://www.w3.org/1999/xlink" x="0px" y="0px"
	 viewBox="0 0 513 509" style="enable-background:new 0 0 513 509;" xml:space="preserve">
<style type="text/css">
	.st0{opacity:0.5;fill:#FECE2F;enable-background:new    ;}
	.st1{fill:#FECE2F;}
	.st2{fill:#FFFFFF;}
	.st3{fill:#1A1A1A;}
</style>
<path class="st0" d="M184.7,60.1c31.1-48.7,146.1-78.1,192.2-47.6s24.8,99.7,54,117.7c29.2,18,96.4,77.8,78.8,149.1
	c-24.8,100.6,1.2,147.1-36.3,180.3c-54,47.8-114.2,8.6-187.8,29.2c-73.5,20.7-184.9,37.9-231.1-13.7C20,436.4,33.7,384.9,11.1,334
	c-27.4-62-3.5-123.1,66.4-134.7C147.5,187.6,155.5,105.9,184.7,60.1z"/>
<path class="st1" d="M169.6,387.5c0,0-25.1-1.2-57.2-23.1c-32.1-21.8-61.6-75.1-61.6-75.1l-15.4-27.6L25.2,254c0,0-3.2-5.8,2.6-1.9
	c5.8,3.9,8.3,6.4,10.3,5.1c1.9-1.3-9.6-14.1-9.6-14.1s-3.2-5.1,1.3-3.9c1.4-1.7,0.6-4.5,3.8-1.9c3.2,2.6,16,15.4,16,15.4
	s-1.9-13.5,1.3-14.1c0,0,3.8,7.7,6.4,19.9c6.4,9,28.2,36.6,40.4,43c12.2,6.4,19.2,5.8,28.9,0c9.6-5.8,13.5-10.9,13.5-10.9
	s14.1,14.8,16.7,22.5c2.6,7.7,11.5,29.5,12.2,42.4C169.5,368.3,169.6,387.5,169.6,387.5z"/>
<path class="st1" d="M367.7,370.2c-1.2,7.1-23.1,30.2-43.6,37.9c-19.9,5.1-34,9-62.2,0c-28.2-9-60.9-46.2-60.9-46.2l-14.1-14.1
	l-14.8-16.7c0,0-34.6-46.9-42.3-49.4l-12.8,4.5c0,0-5.8,0.6-1.3-2.6c4.5-3.2,11.5-5.8,11.5-5.8l-18.6,1.9c0,0-8.3-2.6,0.6-4.5
	c0-1.3-4.5-2.6,1.3-5.8c7.7-1.3,19.9-2.6,19.9-2.6l-12.8-9c0,0-4.5-4.5,2.6-1.9c7.1,2.6,14.8,5.8,14.8,5.8s-3.8-8.3,0-10.9
	c1.9,1.3,6.4,9.6,7.1,14.8c4.5,3.2,34.6,20.5,38.5,23.8c3.8,3.2,26.9,19.3,38.5,24.4c11.5,5.1,21.2,7.7,28.2,7.1
	c7.1-0.6,19.8,0,27.9-17.4c11.9-0.6,35.6,0,53,12.9C345.3,329.1,366.4,358.7,367.7,370.2z"/>
<path class="st1" d="M204.1,215.5c8.3,3.9,18,9.6,35.9,3.9c18-5.8,30.2-27.6,30.2-27.6s-21.2,0.5-25.7,3.2l-12.2-37.9
	c0,0,9.6-4.5,3.8-12.2c-5.8-7.7-10.9,0-12.2,3.9c-1.3,3.9-9-1.3-16-11.6c-7.1-10.3-9-21.8-9-21.8s-10.3,12.8-12.8,23.8
	c-3.8,3.9-3.2,2.6-7.1,2.6c-3.8,0-3.1,4.5-1.3,5.8c1.8,1.3,5.8-0.6,5.8-0.6s-1.9,14.8,2.6,19.3c4.5,4.5,7.7,7.1,17.3,5.8
	c9.6-1.3,5.8,17.3,5.8,17.3l3.8,16.1L204.1,215.5z"/>
<path class="st2" d="M85.2,292c0,0-6.4-5-9.6-3.1c-0.9,0.5-1.9,0.7-2.9,0.4c-1-0.2-1.9-0.8-2.4-1.7L61.2,274
	c-0.4-0.6-0.6-1.2-0.7-1.9c-0.1-0.7,0.1-1.3,0.3-2c0.6-1.2,0.9-3.2,0-6.2C60.8,263.9,81.4,289.6,85.2,292z"/>
<path class="st2" d="M210,317.8l-22.9-15.7c-3.3-2.5-6.6-1.8-7.7-0.2c-1.4,2-0.8,4.4,2.3,6.2l9.4,6.2c0.7,0.5,1.2,1.2,1.4,2.1
	c0.2,0.8,0.1,1.7-0.4,2.5l0,0c-0.3,0.5-0.4,1-0.5,1.5c0,0.5,0.1,1.1,0.3,1.6c0.2,0.5,0.6,0.9,1,1.3c0.4,0.3,0.9,0.6,1.4,0.7l8.9,1.9
	c1.5,0.3,3.1,0.1,4.5-0.5c1.4-0.6,2.6-1.7,3.4-3l0,0c0.4-0.8,0.6-1.6,0.4-2.5C211.2,319.1,210.7,318.3,210,317.8L210,317.8z"/>
<path class="st2" d="M81.2,297.8c-0.5,0.1-1,0.2-1.4,0.1c-0.5-0.1-0.9-0.2-1.3-0.5l0,0c-2.3-1.4-2.8-3.3-1.7-4.7
	c0.9-1.2,3.4-1.7,5.9,0.2c0.4,0.3,0.7,0.7,0.9,1.2c0.2,0.5,0.2,1,0.2,1.5c-0.1,0.5-0.3,1-0.6,1.4c-0.3,0.4-0.8,0.7-1.3,0.8
	L81.2,297.8z"/>
<path class="st2" d="M186,321.5c-0.4,0.1-0.8,0.2-1.2,0.1c-0.4-0.1-0.8-0.2-1.1-0.4l-0.2-0.1c-2.3-1.4-2.8-3.3-1.7-4.7
	c0.9-1.2,3.4-1.7,5.9,0.2c0.4,0.3,0.7,0.7,0.9,1.2c0.2,0.5,0.2,1,0.2,1.5c-0.1,0.5-0.3,1-0.6,1.4c-0.3,0.4-0.8,0.7-1.3,0.8
	L186,321.5z"/>
<path class="st2" d="M155.6,310c0,0,9.7,21.5,12.4,43.6c2.7,22.1,1.6,34,1.6,34s21,2.5,29.6-0.4c0,0-11.2-26.1-12.3-39.3L176.5,337
	L155.6,310z"/>
<path class="st2" d="M204.3,214.5c0.8,1,1.8,1.9,3,2.5c6.4,2.8,14.2,5.3,21.3,5c9.6-0.4,17.2-4.9,24.9-10.6c4.1-3,7.7-6,10.8-10
	c2-2.6,3.6-5.5,4.6-8.7c8.1-0.3,17.9-0.2,28.9,0.5c31.3,2.1,75.9,31.7,89.2,84s-15.8,89.3-15.8,89.3c-2.2-11.2-12-31.4-34.4-48.2
	c-22.5-16.9-61.7-14.8-61.7-14.8c-7.6,18.9-24.2,17.7-39.7,16.8s-53-29.6-53-29.6l-28.2-17.9C159.3,263.6,192.6,227.2,204.3,214.5z"
	/>
<path class="st1" d="M300,295.9h0.4c1.7,0,5.8-0.4,6.7-3.6c0.8-3-1.9-5.5-5-6.7c-0.5-0.2-1-0.4-1.6-0.6c0.4,0,0.9-0.1,1.3-0.1
	c1.1-0.1,4.4-0.5,5.3-3c0.8-2.1-0.6-4.4-2.5-5.6c-2.8-1.8-6.4-1.9-9.2-1.9l-19-0.2c-0.2,0-0.5,0.1-0.6,0.3c-0.2,0.2-0.3,0.4-0.3,0.6
	c0,0.1,0,0.2,0.1,0.3c0,0.1,0.1,0.2,0.2,0.3c0.1,0.1,0.2,0.1,0.3,0.2c0.1,0,0.2,0.1,0.3,0.1l19,0.2c2.6,0,5.9,0.1,8.3,1.6
	c1.2,0.8,2.2,2.3,1.8,3.5c-0.4,1-1.7,1.6-3.9,1.9c-2.8,0.3-5.6,0.5-8.5,0.4c-0.9-0.1-1.7-0.1-2.6-0.1c-0.2,0-0.4,0.1-0.6,0.3
	c-0.2,0.2-0.3,0.4-0.3,0.6s0.1,0.5,0.2,0.6c0.2,0.2,0.4,0.3,0.6,0.3c0.9,0.1,1.7,0.1,2.5,0.1c2.9,0.2,5.7,0.9,8.4,1.9
	c2.2,0.9,4.5,2.7,3.9,4.6c-0.6,2.1-4,2.3-5,2.3c-2.8,0-5.6-0.2-8.4-0.6c-4.6-0.5-9.4-1.1-14,0c-0.1,0-0.2,0.1-0.3,0.1
	c-0.1,0.1-0.2,0.2-0.2,0.3c-0.1,0.1-0.1,0.2-0.1,0.3s0,0.2,0,0.4c0,0.1,0.1,0.2,0.1,0.3c0.1,0.1,0.2,0.2,0.3,0.2
	c0.1,0.1,0.2,0.1,0.3,0.1c0.1,0,0.2,0,0.4,0c4.3-1,8.7-0.5,13.4,0.1C294.4,295.6,297.2,295.8,300,295.9L300,295.9z"/>
<path class="st1" d="M243.1,322.3c0.2,0,0.3,0,0.4-0.1c1.6-1,3.1-2.4,4.2-4c1.1-1.6,1.8-3.4,2.2-5.4c0.7-3.4,0.4-7.2-0.9-11.2
	c-1-3.3-2.5-5.2-4.6-6c-2.5-0.9-5.1,0.3-6.9,1.5c-3,2-5.3,4.8-6.8,8c-1-2.9-2.3-5.8-3.8-8.6c-0.6-1.2-1.4-2.5-2.7-3.2
	c-1.7-0.9-4.6-0.9-7.5,2.2c-0.4,0.4-0.8,0.8-1.1,1.3c-0.3-0.6-0.7-1.1-1.3-1.5c-0.5-0.4-1.1-0.6-1.8-0.8c-1-0.2-2.1-0.2-3.1,0.1
	c-1,0.3-1.9,0.9-2.6,1.6c-2.2,2.3-2.5,5.6-2.7,9c0,0.2,0.1,0.5,0.2,0.6s0.4,0.3,0.6,0.3c0.2,0,0.5-0.1,0.6-0.2
	c0.2-0.2,0.3-0.4,0.3-0.6c0.2-3.1,0.5-6,2.2-7.9c0.5-0.5,1.2-0.9,1.9-1.1c0.7-0.2,1.5-0.2,2.2-0.1c0.4,0.1,0.8,0.2,1.2,0.5
	c0.3,0.3,0.6,0.6,0.7,1c0.1,0.3,0.2,0.7,0.1,1.1c-0.9,1.7-1.5,3.5-1.8,5.3c-0.2,0.6-0.3,1.3-0.2,2c0,0.2,0.1,0.4,0.3,0.6
	c0.2,0.2,0.4,0.2,0.6,0.2c0.2,0,0.4-0.1,0.6-0.3c0.2-0.2,0.3-0.4,0.3-0.6c0-0.5,0.1-1,0.2-1.6c0.2-0.7,0.5-1.4,0.8-2.1
	c0.5-1,0.8-2,1-3.1c0.6-1,1.2-1.9,2-2.7c1.5-1.6,3.7-2.8,5.3-1.9c0.9,0.6,1.6,1.5,2,2.5c1.8,3.4,3.3,7,4.4,10.7
	c0.1,0.2,0.2,0.3,0.3,0.5c0.2,0.1,0.3,0.2,0.5,0.2l0,0c0.2,0,0.4-0.1,0.5-0.2s0.3-0.3,0.3-0.4c1.2-3.9,3.6-7.2,7-9.5
	c1.2-0.8,3.4-2,5.3-1.3c1.5,0.5,2.6,2.1,3.5,4.8c1.1,3.3,1.4,6.9,0.8,10.4c-0.3,1.7-0.9,3.3-1.9,4.7c-0.9,1.4-2.2,2.6-3.6,3.6
	c-0.2,0.1-0.3,0.3-0.4,0.5c-0.1,0.2,0,0.5,0.1,0.7c0.1,0.1,0.2,0.2,0.3,0.3C242.8,322.2,242.9,322.2,243.1,322.3L243.1,322.3z"/>
<path class="st1" d="M193,275.4c1.8,0,3.7-0.2,5.5-0.6c2.6-0.6,4.2-1.7,4.8-3.4c0.7-1.9-0.3-3.8-1.5-5c6.3,0.6,12.7,0.2,18.9-1
	c1.3-0.2,2.5-0.7,3.4-1.5c1.6-1.6,1.2-4.2,0.1-5.8c-1.1-1.6-2.9-2.5-4.5-3.2c-0.2-0.1-0.4-0.2-0.6-0.2c1.7,0,3.4-0.1,5.1-0.1
	c4.9-0.2,6.6-2.5,6.5-4.4c-0.1-1.2-0.6-2.3-1.5-3.2c-5.3-6.3-13.3-9.1-20.9-11.7c-3.3-1.2-6.7-2.3-9.8-3.8c-0.1,0-0.2-0.1-0.3-0.1
	c-0.1,0-0.2,0-0.3,0.1s-0.2,0.1-0.3,0.2s-0.2,0.2-0.2,0.3c0,0.1-0.1,0.2-0.1,0.3c0,0.1,0,0.2,0.1,0.3s0.1,0.2,0.2,0.3
	c0.1,0.1,0.2,0.2,0.3,0.2c3.2,1.5,6.6,2.7,10,3.8c7.8,2.7,15.2,5.3,20.2,11.2c0.6,0.5,1,1.3,1.1,2.1c0,0.3,0,1.1-1.4,1.8
	c-1.1,0.5-2.2,0.7-3.4,0.8c-3.8,0.1-7.7,0.2-11.6,0.1c-2.5-0.4-5.1-0.5-7.7-0.4c-0.2,0-0.4,0.1-0.6,0.3c-0.2,0.2-0.2,0.4-0.2,0.6
	c0,0.2,0.1,0.4,0.2,0.6c0.2,0.2,0.4,0.3,0.6,0.3c2.5,0.2,5,0.3,7.5,0.4c2.3,0.4,4.6,1,6.7,2c1.3,0.6,2.8,1.3,3.7,2.5
	c0.7,1,0.9,2.6,0.1,3.5c-0.7,0.6-1.6,0.9-2.5,1c-7.6,1.5-15.5,1.7-23.1,0.4c-0.2,0-0.4,0-0.6,0.1c-0.2,0.1-0.3,0.3-0.4,0.5
	c-0.1,0.2,0,0.4,0.1,0.6c0.1,0.2,0.3,0.3,0.5,0.4c1.4,0.4,2.7,1,3.8,1.9c0.8,0.7,1.5,2,1.1,3.2c-0.4,1-1.6,1.8-3.5,2.2
	c-4,0.9-8.2,0.7-12.2-0.6c-0.1,0-0.2-0.1-0.3,0c-0.1,0-0.2,0-0.3,0.1c-0.1,0.1-0.2,0.1-0.3,0.2c-0.1,0.1-0.1,0.2-0.2,0.3
	c0,0.1-0.1,0.2,0,0.3c0,0.1,0,0.2,0.1,0.3c0.1,0.1,0.1,0.2,0.2,0.3c0.1,0.1,0.2,0.1,0.3,0.2C187.9,275,190.4,275.4,193,275.4
	L193,275.4z"/>
<path class="st1" d="M390.4,287.5c0.2,0,0.4-0.1,0.6-0.2c0.2-0.1,0.3-0.3,0.3-0.5c0-0.2,0-0.5-0.1-0.7c-0.1-0.2-0.3-0.3-0.6-0.4
	l-19.8-3.4c-2.2-0.4-4.7-0.8-6.4-2.2c-1.5-1.2-2.4-3.7-1.2-5.3c0.9-1.2,2.7-1.5,4.6-1.8c1-0.1,2-0.3,3-0.4c3.8,0.6,7.6,1,11.5,1.1
	c0.2,0,0.4-0.1,0.6-0.2c0.2-0.1,0.3-0.3,0.3-0.5c0-0.2,0-0.4-0.1-0.6c-0.1-0.2-0.2-0.3-0.4-0.4c-3.8-1.6-8-1.6-11.8-1.2
	c-2.2-0.4-4.5-0.8-6.7-1.3c-2.1-0.5-4.6-1.2-6.2-2.8c-1.4-1.4-2.2-3.8-1-5.5c0.9-1.2,2.5-1.7,4-2c8.7-1.8,17.7-0.3,25.2,4.4
	c0.2,0.1,0.4,0.2,0.7,0.1c0.2-0.1,0.4-0.2,0.5-0.4s0.2-0.4,0.1-0.7c-0.1-0.2-0.2-0.4-0.4-0.5c-7.9-4.9-17.4-6.5-26.5-4.6
	c-1.7,0.4-3.8,1-5,2.7c-1.7,2.5-0.7,5.9,1.2,7.8c1.9,1.9,4.6,2.6,7,3.2l1.6,0.4c-1.4,0.2-2.7,1-3.6,2.1c-1.8,2.4-0.7,5.9,1.5,7.7
	c2.1,1.7,5,2.2,7.2,2.6l19.8,3.4C390.3,287.5,390.3,287.5,390.4,287.5z"/>
<path class="st1" d="M274.9,245c2.9,0,5.5-1.3,6.8-3.4c0.6-1.1,1-2.3,1.1-3.6c0.1-1.3-0.1-2.5-0.6-3.7c-0.4-1.1-0.9-2-1.5-3
	c3.5,1.4,7.1,2.4,10.8,3.2c1.8,0.4,3.9,0.7,5.9,0.2c2.4-0.6,4.2-2.2,4.6-4.2c0.5-2.1-0.5-4.5-2.9-6.7c-2-1.8-4.2-3.3-6.6-4.5
	c0.6-0.1,1.3-0.1,1.9-0.3c0.8-0.1,1.5-0.4,2.2-0.8c0.7-0.6,1.2-1.5,1.4-2.4c0.2-0.9,0.1-1.9-0.4-2.8c-0.8-1.6-2.3-2.7-3.5-3.4
	c-6.3-3.8-13.9-4.6-20.5-5.4c-0.1,0-0.2,0-0.3,0c-0.1,0-0.2,0.1-0.3,0.2c-0.1,0.1-0.2,0.2-0.2,0.3c-0.1,0.1-0.1,0.2-0.1,0.3
	c0,0.1,0,0.2,0,0.3c0,0.1,0.1,0.2,0.2,0.3c0.1,0.1,0.2,0.2,0.3,0.2c0.1,0.1,0.2,0.1,0.3,0.1c6.5,0.8,13.9,1.7,19.9,5.2
	c1.2,0.6,2.2,1.5,2.8,2.7c0.4,0.9,0.4,2.3-0.4,2.9c-0.4,0.3-1,0.4-1.5,0.5c-2.6,0.5-5.3,0.5-7.9,0.1h-0.1c-0.1,0-0.2,0-0.3,0
	c-0.1,0-0.2,0.1-0.3,0.1c-0.1,0.1-0.2,0.2-0.2,0.3c-0.1,0.1-0.1,0.2-0.1,0.3c0,0.1,0,0.2,0,0.3c0,0.1,0.1,0.2,0.1,0.3
	s0.2,0.2,0.3,0.2c0.1,0.1,0.2,0.1,0.3,0.1c0,0,0,0,0,0c0,0,0,0,0,0c4.5,0.7,8.7,2.8,12,5.9c1.3,1.2,2.8,3.1,2.4,5.1
	c-0.3,1.5-1.9,2.5-3.3,2.9c-1.7,0.3-3.5,0.2-5.2-0.3c-5.2-1.1-10.2-2.8-15-5c-0.6-0.4-1.2-0.7-1.9-0.9c-0.1,0-0.2-0.1-0.3-0.1
	c-0.1,0-0.2,0-0.3,0.1c-0.1,0-0.2,0.1-0.3,0.2c-0.1,0.1-0.1,0.2-0.2,0.3c-0.1,0.2-0.1,0.4,0,0.7c0.1,0.2,0.2,0.4,0.4,0.5l1.8,0.9
	c2.1,1.3,3.7,3.2,4.5,5.5c0.4,0.9,0.5,1.9,0.5,2.9s-0.3,2-0.8,2.8c-1.2,1.9-3.8,2.9-6.5,2.5c-2.2-0.3-4.4-1.4-7-3.5
	c-5.5-4.5-9.6-10.4-12-17.1c-0.1-0.2-0.2-0.4-0.5-0.5c-0.2-0.1-0.4-0.1-0.7,0c-0.2,0.1-0.4,0.2-0.5,0.4c-0.1,0.2-0.1,0.4,0,0.7
	c2.5,7,6.8,13.2,12.6,17.9c1.8,1.4,4.6,3.4,7.8,3.9C273.9,245,274.4,245,274.9,245z"/>
<path class="st2" d="M196,142.6c-3.6-0.5-6.4-2.1-6.2-3.7c0.2-1.6,3.3-2.5,6.9-2.1c3.6,0.5,6.4,2.1,6.2,3.7
	C202.7,142.1,199.6,143.1,196,142.6z"/>
<path class="st2" d="M200.5,152.9l-8.2,8.4c0,0,4.8,2.5,8.1-0.9C203.7,157.1,200.5,152.9,200.5,152.9z"/>
<path class="st3" d="M196,163.1c0.9,0,1.9-0.1,2.7-0.5c0.9-0.4,1.6-0.9,2.3-1.5c3.1-3.1,1.4-7.1,0.1-8.7c-0.1-0.1-0.2-0.2-0.3-0.2
	c-0.1-0.1-0.2-0.1-0.4-0.1c-0.1,0-0.3,0-0.4,0.1c-0.1,0-0.2,0.1-0.3,0.2l-8.2,8.4c-0.1,0.1-0.2,0.2-0.2,0.4c0,0.1,0,0.3,0,0.4
	c0,0.1,0.1,0.3,0.2,0.4c0.1,0.1,0.2,0.2,0.3,0.3C193.2,162.8,194.6,163.1,196,163.1L196,163.1z M200.3,154.4
	c0.6,1.2,1.4,3.5-0.6,5.5c-0.6,0.6-1.3,1-2.1,1.3c-0.8,0.3-1.6,0.3-2.4,0.2c-0.5-0.1-1-0.2-1.4-0.3L200.3,154.4z"/>
<path class="st2" d="M159.4,297.2c-4.4,0-8-3.6-8-8.1c0-4.5,3.6-8.1,8-8.1c4.4,0,8,3.6,8,8.1C167.4,293.6,163.8,297.2,159.4,297.2z"
	/>
<path class="st3" d="M159.4,291c-1.1,0-2-0.9-2-2c0-1.1,0.9-2,2-2c1.1,0,2,0.9,2,2C161.4,290.2,160.5,291,159.4,291z"/>
<path class="st3" d="M159.4,291.9c0.6,0,1.1-0.2,1.6-0.5c0.5-0.3,0.8-0.8,1.1-1.3c0.2-0.5,0.3-1.1,0.2-1.7c-0.1-0.6-0.4-1.1-0.8-1.5
	c-0.4-0.4-0.9-0.7-1.5-0.8c-0.6-0.1-1.1-0.1-1.7,0.2c-0.5,0.2-1,0.6-1.3,1.1c-0.3,0.5-0.5,1-0.5,1.6c0,0.8,0.3,1.5,0.8,2
	C157.9,291.6,158.6,291.9,159.4,291.9z M159.4,287.9c0.3,0,0.6,0.1,0.8,0.3c0.2,0.2,0.3,0.5,0.3,0.8c0,0.1,0,0.3-0.1,0.4
	c-0.1,0.1-0.1,0.3-0.2,0.4c-0.1,0.1-0.2,0.2-0.4,0.2c-0.1,0.1-0.3,0.1-0.4,0.1c-0.3,0-0.6-0.1-0.8-0.3c-0.2-0.2-0.3-0.5-0.3-0.8
	c0-0.3,0.1-0.6,0.3-0.8C158.8,288,159.1,287.9,159.4,287.9L159.4,287.9z"/>
<path class="st3" d="M159.3,287.8c0.2,0,0.5-0.1,0.6-0.3c0.2-0.2,0.3-0.4,0.3-0.6l-0.1-3.2c0-0.1,0-0.2-0.1-0.3
	c0-0.1-0.1-0.2-0.2-0.3c-0.1-0.1-0.2-0.1-0.3-0.2c-0.1,0-0.2-0.1-0.3-0.1c-0.2,0-0.5,0.1-0.6,0.3c-0.2,0.2-0.2,0.4-0.2,0.6l0.1,3.2
	c0,0.2,0.1,0.4,0.3,0.6C158.8,287.7,159,287.8,159.3,287.8z"/>
<path class="st3" d="M248.5,443.9c0.2,0,0.4-0.1,0.5-0.2c11.8-9.3,23.1-19.3,33.8-29.9c0.1-0.1,0.2-0.2,0.2-0.3
	c0-0.1,0.1-0.2,0.1-0.3s0-0.2-0.1-0.3c0-0.1-0.1-0.2-0.2-0.3c-0.1-0.1-0.2-0.2-0.3-0.2c-0.1,0-0.2-0.1-0.3-0.1c-0.1,0-0.2,0-0.3,0.1
	c-0.1,0-0.2,0.1-0.3,0.2C271,423.1,259.7,433,248,442.3c-0.2,0.1-0.3,0.4-0.3,0.6c0,0.2,0,0.5,0.2,0.7c0.1,0.1,0.2,0.2,0.3,0.2
	C248.3,443.9,248.4,443.9,248.5,443.9z"/>
<path class="st3" d="M388.9,287.7c34-46.8,56.6-85.9,46.1-93.5c-20.3-14.7-67.1,42.7-67.1,42.7s12,18.3,14.2,23.9
	C384.7,267.2,388.9,287.7,388.9,287.7z"/>
<path class="st3" d="M388.9,288.6c0.1,0,0.3,0,0.4-0.1c0.1-0.1,0.2-0.2,0.3-0.3c15.8-21.8,28-40.3,36.3-55
	c9.3-16.6,13.5-28.3,12.5-34.8c-0.1-1-0.4-1.9-0.9-2.8c-0.5-0.9-1.1-1.6-1.9-2.2c-4.9-3.6-11.6-3.4-19.9,0.4
	c-6.5,3-14,8.2-22.3,15.5c-14.1,12.4-25.9,26.9-26,27c-0.1,0.1-0.2,0.3-0.2,0.5c0,0.2,0,0.4,0.1,0.5c0.1,0.2,11.9,18.3,14.1,23.8
	c2.5,6.3,6.6,26.5,6.7,26.7c0,0.2,0.1,0.3,0.2,0.5c0.1,0.1,0.3,0.2,0.5,0.2C388.8,288.5,388.8,288.6,388.9,288.6z M427.2,192.6
	c2.6-0.1,5.2,0.7,7.3,2.2c0.6,0.5,1.1,1,1.4,1.7c0.4,0.7,0.6,1.4,0.7,2.1c1.3,8.1-5.9,29.7-47.3,86.8c-1.1-5.3-4.2-19.8-6.4-25.1
	c-2-5.1-11.9-20.4-13.9-23.5c7.8-9.4,16.3-18.1,25.4-26.3C404.5,201.8,417.3,192.6,427.2,192.6L427.2,192.6z"/>
<path class="st3" d="M316.4,435.4c0.1,0,0.1,0,0.2,0c17.8-4.4,34.6-12.6,49.1-23.9c12.4-9.7,23.4-21.1,32.5-33.9
	c16.4-22.6,23.6-43.2,23.6-43.4c0-0.1,0.1-0.2,0-0.3c0-0.1,0-0.2-0.1-0.3c-0.1-0.1-0.1-0.2-0.2-0.3c-0.1-0.1-0.2-0.1-0.3-0.2
	c-0.1,0-0.2-0.1-0.3,0c-0.1,0-0.2,0-0.3,0.1c-0.1,0.1-0.2,0.1-0.3,0.2c-0.1,0.1-0.1,0.2-0.2,0.3c-0.1,0.2-7.1,20.6-23.4,43
	c-9.1,12.6-19.9,23.9-32.2,33.5c-14.3,11.1-30.8,19.1-48.4,23.5c-0.1,0-0.2,0.1-0.3,0.1c-0.1,0.1-0.2,0.2-0.2,0.3
	c-0.1,0.1-0.1,0.2-0.1,0.3c0,0.1,0,0.2,0,0.3c0.1,0.2,0.2,0.4,0.3,0.5C316.1,435.3,316.2,435.4,316.4,435.4z"/>
<path class="st3" d="M93.6,375.4c0.1,0,0.3,0,0.4-0.1c0.1-0.1,0.2-0.2,0.3-0.3c0.1-0.2,0.2-0.4,0.2-0.7c0-0.2-0.2-0.4-0.3-0.6
	c-17.6-13-29.9-32.3-37.1-46.2c-4.6-8.8-8.5-17.9-11.6-27.3c0-0.1-0.1-0.2-0.2-0.3s-0.2-0.2-0.3-0.2c-0.1-0.1-0.2-0.1-0.3-0.1
	c-0.1,0-0.2,0-0.3,0c-0.1,0-0.2,0.1-0.3,0.2c-0.1,0.1-0.2,0.2-0.2,0.3s-0.1,0.2-0.1,0.3c0,0.1,0,0.2,0,0.3
	c3.1,9.5,7.1,18.7,11.7,27.6c7.3,14,19.8,33.6,37.6,46.8C93.3,375.3,93.5,375.4,93.6,375.4z"/>
<path class="st3" d="M201,143.2c-1,0.3-2.1,0.4-3.1,0.4c-0.7,0-1.3-0.1-2-0.1c-0.1,0-0.2,0-0.3,0h-0.1c-0.1,0-0.1,0-0.2,0
	c-0.3-0.1-0.6-0.1-0.9-0.2c-2.8-0.6-4.8-2-5.3-3.5v0c0-0.1,0-0.1,0-0.2c0-0.2-0.1-0.4-0.1-0.6c0-0.4,0.1-0.7,0.3-1.1
	c0.2-0.3,0.5-0.6,0.8-0.8c1.1-0.8,3-1.3,5.3-1.2c0.5,0,1,0.1,1.5,0.1c1.7,0.2,3.4,0.7,4.8,1.6c1.5,0.9,2.2,2,2.1,3.2
	C203.7,141.8,202.6,142.7,201,143.2z M200.8,139c-1.2-0.7-2.6-1.1-4-1.3c0.4,1.3,0.4,2.8,0,4.1c1.2,0.1,2.5,0,3.7-0.3
	c0.9-0.3,1.5-0.7,1.5-1.1C202.1,140,201.6,139.5,200.8,139L200.8,139z"/>
<path class="st3" d="M228,150.4l3.5-3.8c-0.4-0.4-0.8-0.6-1.3-0.9c-0.1,0-0.2-0.1-0.3-0.2c-0.1-0.1-0.2-0.2-0.2-0.3
	c0-0.1-0.1-0.2-0.1-0.3c0-0.1,0-0.2,0.1-0.3c0.1-0.2,0.3-0.4,0.5-0.5c0.2-0.1,0.5-0.1,0.7,0c1.7,0.6,4.6,3.1,3.6,7.8
	c0,0.2-0.1,0.4-0.3,0.5s-0.4,0.2-0.6,0.2c-0.1,0-0.1,0-0.1,0c-0.1,0-0.2-0.1-0.3-0.1c-0.1-0.1-0.2-0.1-0.2-0.2
	c-0.1-0.1-0.1-0.2-0.1-0.3c0-0.1,0-0.2,0-0.3c0.3-1.2,0.2-2.4-0.3-3.5l-3.3,3.5c-0.1,0.1-0.2,0.2-0.3,0.2c-0.1,0.1-0.2,0.1-0.4,0.1
	c-0.2,0-0.4-0.1-0.6-0.2c-0.1-0.1-0.2-0.2-0.2-0.3c-0.1-0.1-0.1-0.2-0.1-0.3c0-0.1,0-0.2,0.1-0.3C227.9,150.6,228,150.5,228,150.4z"
	/>
<path class="st3" d="M468.6,149c0.1,0,0.2,0,0.3-0.1c14.4-5.8,21.9-14.5,25.6-20.7c4-6.8,4.6-12.2,4.7-12.4c0-0.1,0-0.2,0-0.3
	c0-0.1-0.1-0.2-0.2-0.3c-0.1-0.1-0.2-0.2-0.3-0.2c-0.1-0.1-0.2-0.1-0.3-0.1c-0.1,0-0.2,0-0.3,0c-0.1,0-0.2,0.1-0.3,0.2
	c-0.1,0.1-0.2,0.2-0.2,0.3c-0.1,0.1-0.1,0.2-0.1,0.3l0,0c0,0.1-0.6,5.3-4.5,11.8c-3.6,6-10.8,14.3-24.7,19.9
	c-0.2,0.1-0.4,0.2-0.5,0.4c-0.1,0.2-0.1,0.4-0.1,0.6c0,0.2,0.1,0.4,0.3,0.5C468.2,148.9,468.4,149,468.6,149L468.6,149z"/>
<path class="st3" d="M250.8,79.6c0.1,0,0.2,0,0.3-0.1c8.5-3,14.2-12.2,14.4-12.6c0.1-0.1,0.1-0.2,0.1-0.3c0-0.1,0-0.2,0-0.3
	c0-0.1-0.1-0.2-0.1-0.3c-0.1-0.1-0.2-0.2-0.3-0.2c-0.1-0.1-0.2-0.1-0.3-0.1c-0.1,0-0.2,0-0.3,0c-0.1,0-0.2,0.1-0.3,0.1
	c-0.1,0.1-0.2,0.2-0.2,0.3c-0.1,0.1-5.6,9.1-13.5,11.9c-0.1,0-0.2,0.1-0.3,0.2c-0.1,0.1-0.2,0.2-0.2,0.3c0,0.1-0.1,0.2-0.1,0.3
	c0,0.1,0,0.2,0.1,0.3c0.1,0.2,0.2,0.3,0.3,0.4C250.4,79.5,250.6,79.6,250.8,79.6L250.8,79.6z"/>
<path class="st3" d="M466.5,22.2c0.1,0,0.2,0,0.3-0.1c0.1,0,0.2-0.1,0.3-0.2c0.1-0.1,0.1-0.2,0.2-0.3c0-0.1,0.1-0.2,0.1-0.3
	c0-0.1,0-0.2-0.1-0.3c0-0.1-0.1-0.2-0.2-0.3c-0.4-0.4-8.8-8.5-22.9-11.1c-0.2,0-0.5,0-0.7,0.1c-0.2,0.1-0.3,0.3-0.4,0.6
	c0,0.2,0,0.5,0.1,0.7c0.1,0.2,0.3,0.3,0.6,0.4c8.2,1.5,15.8,5.2,22,10.6C466,22.1,466.3,22.2,466.5,22.2L466.5,22.2z"/>
<path class="st1" d="M202.8,114.8c0.2,0,0.4-0.1,0.5-0.2c0.2-0.1,0.3-0.3,0.3-0.5c3.9-13.2,25-14.4,25.2-14.5c0.1,0,0.2,0,0.3-0.1
	c0.1-0.1,0.2-0.1,0.3-0.2c0.1-0.1,0.1-0.2,0.2-0.3c0-0.1,0.1-0.2,0-0.3c0-0.1,0-0.2-0.1-0.3c-0.1-0.1-0.1-0.2-0.2-0.3
	c-0.2-0.2-0.4-0.2-0.6-0.2c-4,0.3-7.9,1.1-11.7,2.4c-8.1,2.8-13.3,7.4-15.1,13.3c0,0.1-0.1,0.2,0,0.3c0,0.1,0,0.2,0.1,0.3
	c0.1,0.1,0.1,0.2,0.2,0.3c0.1,0.1,0.2,0.1,0.3,0.2C202.6,114.8,202.7,114.8,202.8,114.8z"/>
<path class="st1" d="M477.5,112.2c0.2,0,0.4-0.1,0.5-0.2c0.2-0.1,0.3-0.3,0.3-0.5c3.4-10.2,4.8-20.2,4.1-29.7
	c-0.5-7.4-2.3-14.8-5.3-21.6c-5.2-11.5-12.1-17.4-12.4-17.6c-0.1-0.1-0.2-0.1-0.3-0.2c-0.1,0-0.2,0-0.3,0c-0.1,0-0.2,0-0.3,0.1
	c-0.1,0.1-0.2,0.1-0.3,0.2c-0.1,0.1-0.1,0.2-0.2,0.3c0,0.1,0,0.2,0,0.3c0,0.1,0,0.2,0.1,0.3c0.1,0.1,0.1,0.2,0.2,0.3
	c1.5,1.3,2.8,2.8,4.1,4.3c3.2,3.9,5.8,8.2,7.9,12.7c2.9,6.6,4.7,13.7,5.1,20.9c0.6,9.2-0.8,18.9-4,28.9c0,0.1-0.1,0.2,0,0.3
	c0,0.1,0,0.2,0.1,0.3c0.1,0.1,0.1,0.2,0.2,0.3c0.1,0.1,0.2,0.1,0.3,0.2C477.3,112.2,477.4,112.2,477.5,112.2z"/>
<path class="st1" d="M257.9,165.1h0.2c15.1-0.1,27.2-7.4,38.9-14.5c17.2-10.4,35-21.1,63.7-10.7c0.1,0,0.2,0.1,0.3,0.1
	c0.1,0,0.2,0,0.3-0.1c0.1-0.1,0.2-0.1,0.3-0.2c0.1-0.1,0.1-0.2,0.2-0.3c0-0.1,0.1-0.2,0.1-0.3c0-0.1,0-0.2-0.1-0.3
	c0-0.1-0.1-0.2-0.2-0.3c-0.1-0.1-0.2-0.1-0.3-0.2c-29.4-10.7-47.6,0.3-65.2,10.9c-12,7.2-23.4,14.1-38,14.2h-0.2
	c-12.1,0-17.8-8.3-17.9-8.4c-0.1-0.1-0.1-0.2-0.2-0.3c-0.1-0.1-0.2-0.1-0.3-0.1c-0.1,0-0.2,0-0.4,0c-0.1,0-0.2,0.1-0.3,0.1
	c-0.1,0.1-0.2,0.2-0.2,0.3c-0.1,0.1-0.1,0.2-0.1,0.3c0,0.1,0,0.2,0,0.4c0,0.1,0.1,0.2,0.1,0.3C238.8,156.3,244.8,165.1,257.9,165.1z
	"/>
<path class="st3" d="M39.9,260.8l6.7-1.7c-0.2-0.9-0.3-1.8-0.2-2.6c0-0.1,0.1-0.2,0.1-0.3c0.1-0.1,0.1-0.2,0.2-0.3
	c0.1-0.1,0.2-0.1,0.3-0.2c0.1,0,0.2,0,0.3,0s0.2,0.1,0.3,0.1c0.1,0.1,0.2,0.1,0.3,0.2c0.1,0.1,0.1,0.2,0.1,0.3c0,0.1,0,0.2,0,0.3
	c-0.1,1.4,0.2,2.7,1,3.8c1,1.3,2.7,2.1,5,2.4c0.2,0,0.4,0.1,0.6,0.3c0.1,0.2,0.2,0.4,0.2,0.6c0,0.2-0.1,0.4-0.3,0.6
	c-0.2,0.2-0.4,0.2-0.6,0.2H54c-2.8-0.3-4.9-1.4-6.2-3.1c-0.2-0.3-0.4-0.6-0.5-0.9l-7,1.7c-0.1,0-0.1,0-0.2,0c-0.2,0-0.4-0.1-0.5-0.2
	c-0.2-0.1-0.3-0.3-0.3-0.5c0-0.1,0-0.2,0-0.3c0-0.1,0.1-0.2,0.1-0.3s0.1-0.2,0.2-0.3C39.7,260.9,39.8,260.9,39.9,260.8z"/>
<path class="st3" d="M23.4,251.1c0.1-0.2,0.2-0.4,0.4-0.5c0.2-0.2,0.4-0.3,0.6-0.3c1.4-0.4,3.5,0.9,6.9,3.2c1.7,1.1,5,3.3,6,3.3
	c-0.2-1.1-2.7-4.1-4.4-6.2c-4.1-5.1-6.8-8.5-6.3-10.8c0-0.4,0.2-0.7,0.4-1c0.2-0.3,0.5-0.5,0.9-0.6c0.5-0.1,1-0.1,1.5,0.1
	c0-0.2-0.1-0.4-0.1-0.6c0-0.4,0.2-0.9,0.5-1.2c2.1-2,4.8,0.6,9.7,5.4c1,1,2.1,2.1,3.4,3.3c1.3,1.2,4,3.8,5.7,5.5
	c-1-5.9-0.7-10,0.8-11.8c0.2-0.3,0.5-0.6,0.8-0.7c0.3-0.2,0.7-0.3,1.1-0.3c1.2,0,1.6,1.2,3.9,10.1c1,4,2.1,8.2,3,10.4
	c0.9,2.2,8.7,13,18.8,23.7c7.1,7.6,20.5,20.7,30.2,22.8c5.3,1.2,10.9,0.4,16.6-2.4c4.9-2.4,9.9-6.3,15-11.6c-7.3-8-9.2-8.2-9.5-8.2
	c-1.3,0.2-3.4,1.2-5.4,2.1c-4.1,2-8.5,4-10.3,1.7c-0.2-0.2-0.3-0.5-0.4-0.8s0-0.6,0-0.9c0.5-1.8,4.4-3.8,8-5.3
	c-4.3,0.4-9.4,0.8-10.6,0.9c-0.6,0.1-1.1,0.1-1.6,0.1c-1.9,0-3.3-0.4-4-1.3c-0.2-0.3-0.4-0.6-0.5-0.9c-0.1-0.3-0.1-0.7,0-1.1
	c0-0.2,0.1-0.3,0.2-0.4c0.9-0.9,2-1.5,3.2-2c-0.4-0.2-0.7-0.6-0.9-0.9c-0.2-0.4-0.3-0.9-0.2-1.4c0-0.5,0.2-0.9,0.5-1.3
	c1.9-3.4,14.2-4.6,20.3-5c-1.4-0.9-3.4-2.2-5.2-3.5c-7.5-5.1-7.7-6.3-7.2-7.2c0.1-0.3,0.3-0.5,0.6-0.7s0.5-0.3,0.8-0.4
	c2.3-0.6,8,1.5,16.9,6c-1.8-5.9-1.4-9.3,1-10.4c0.2-0.1,0.4-0.1,0.6-0.1s0.4,0,0.6,0.1c0.8,0.4,2.2,1.7,5.2,8.7
	c1.3,3.2,2.5,6.2,2.8,7.2c1.7,0.9,3.3,1.9,5.1,2.9c1.7,1,3.4,2,5.1,3c3-4.3,7.4-10,12.6-16.1c0-0.1,0.1-0.2,0.2-0.3
	c0.2-0.2,0.9-1,2-2.3c6.3-7.5,13.3-15.3,19.4-22c11.6-12.8,22-23.8,24.3-26.2c0,0,0.1-0.1,0.1-0.1l-6.6-27.1l-1.1-4.5
	c-1.3,0.2-2.5,0.3-3.8,0.3c-4,0-7.8-1.1-11.2-3.1c-6-3.7-8.2-11.4-6.5-22.1c-0.8,0.4-1.6,0.6-2.5,0.6c-0.3,0-0.6,0-0.9-0.1
	c-0.8-0.1-1.5-0.4-2.2-0.9c-0.6-0.4-1.2-1-1.6-1.7c-0.3-0.6-0.4-1.2-0.3-1.9s0.3-1.3,0.7-1.8c0.5-0.7,1.7-1.8,4.3-1.3
	c1,0.2,2,0.1,2.9-0.4c0.9-0.5,1.6-1.2,2-2.2c0-0.1,0-0.1,0-0.2c2.8-8.5,7.3-17.1,12.1-23.2c0-1.4,0.1-2.9,0.4-4.3
	c1.2-6.2,5.9-14,21.2-15.6c34.3-3.5,47.6-23.4,56.3-36.5c0.7-0.9,1.3-1.9,1.9-2.8c8.7-12.8,23.3-34.2,70.5-31.1
	c19.6,1.2,29.9-3.5,39.9-8.2c6.7-3.1,13-6.1,21.6-6.8C418.9,9,430,11,444.2,16c13.9,4.9,26.3,13.5,35.7,24.9
	c8.6,10.4,14.5,22.7,17.1,36c2,10.3,1.6,20.9-1.2,31c-2.8,9.9-8.4,18.8-16.2,25.6c-12.7,11.1-28,17.2-46.6,18.7
	c-16.4,1.3-33.1-0.9-49.4-3.2c-7.6-1-14.7-2-21.8-2.6c-21.7-1.9-34.3,5-47.7,12.2c-9.8,5.3-20,10.9-34.5,13.8
	c-4.5,0.9-9,1.4-13.5,1.4c-11.1,0-19-3.1-24.2-6.2c-3-1.8-5.7-3.9-8.2-6.4l10.8,32.5c11-2.1,22.1-3,33.3-2.8
	c10.6,0.1,21.1,1.5,31.4,3.9c12.1,3,23,7.7,32.2,14.1c20.5,14.1,36.8,36.9,44.6,62.4c4.1,13.2,5.8,27.1,4.9,40.9
	c-0.9,14.7-4.9,29-11.6,42c-6.8,13.2-14.7,24.4-23.7,33.5c-7.9,8.1-17.3,14.7-27.6,19.4c-10.8,4.9-22.5,7.5-34.4,7.5
	c-3.9,0-7.8-0.3-11.7-0.8l-21,19.6c-0.1,0.1-0.3,0.2-0.4,0.2c-0.3,0-0.6,0.1-0.9,0.1c-2.5,0-9.6-1.2-15.6-13.9
	c-4.1-8.7-7.9-9.1-12.2-9.5c-2.9-0.3-6.2-0.6-9.8-3.4c-5-3.8-4-9.1-3.2-13.3c0.8-4.1,1.1-6.7-1.7-8.2c-7.3-3.9-18.4-9.7-19.4-24.7
	c-3.5-3.4-6.8-6.8-9.9-10.1c0,0.1,0,0.3,0,0.4c0.4,1.7,0.9,3.5,1.3,5.2c0.9,3.6,2,7.1,3.1,10.6c1.1,3.3,2.3,6.5,3.4,9.4
	c4.8,12.5,11.4,24.3,19.5,35c9.2,12.2,20.6,22.5,33.5,30.6c0.1,0.1,0.2,0.1,0.3,0.3c0.1,0.1,0.2,0.2,0.3,0.3
	c0.1,0.1,0.1,0.2,0.1,0.4c0,0.1,0,0.3-0.1,0.4c-0.1,0.1-0.2,0.3-0.3,0.3c-20.6,16.1-37.1,24.1-49.1,24.1c-4.3,0.1-8.5-1.2-12-3.7
	c-2.6-1.9-4.1-4.8-4.5-8.6c-1.2-12,9.2-32.5,25.2-50.3c-3.5-5.3-6.7-10.9-9.5-16.7c-4.7,0.6-9.4,0.9-14.1,0.9
	c-9.2,0-18.4-1.1-27.4-3.2c-18.8-4.5-36.7-13.4-53.2-26.7c-31.1-25.2-57.8-75.1-66.6-91.5c-1.4-2.6-2.5-4.7-2.8-5.1
	c-0.7-0.9-2.5-2.2-4.5-3.6C25.5,255.7,22.5,253.2,23.4,251.1z M134.9,251.7c-1.4,0.9-1.1,4.6,0.7,9.8c1.7,0.9,3.5,1.9,5.5,3
	C138.4,257.3,135.9,252.4,134.9,251.7z M147.8,270.3c-16.7-9.7-28-14.9-30.9-14.2h0c1.2,1.6,7.9,6.2,13.9,9.9
	c0.1,0.1,0.2,0.1,0.3,0.2c0.1,0.1,0.1,0.2,0.1,0.3c0,0.1,0,0.2,0,0.3c0,0.1-0.1,0.2-0.1,0.3c-0.1,0.1-0.1,0.2-0.2,0.3
	c-0.1,0.1-0.2,0.1-0.3,0.1c-0.1,0-0.1,0-0.2,0c-0.1,0-5.1,0.2-10.3,0.9c-9.2,1.2-10.9,2.8-11.3,3.4c-0.2,0.3-0.4,0.7-0.2,1
	c0.4,0.4,1,0.7,1.6,0.7c0.1,0,0.3,0.1,0.4,0.1c7.4-1.9,18.1-1.6,18.7-1.6c0.1,0,0.2,0,0.3,0.1c0.1,0,0.2,0.1,0.3,0.2
	c0.1,0.1,0.1,0.2,0.2,0.3c0,0.1,0.1,0.2,0.1,0.3c0,0.2-0.1,0.5-0.3,0.6c-0.2,0.2-0.4,0.2-0.6,0.2c-5.1-0.1-19.1,0.2-23,3.6
	c0,0.1,0.1,0.2,0.1,0.3c0.2,0.3,1.1,0.9,4.1,0.6c2.1-0.2,16.4-1.3,17-1.4c0.2,0,0.5,0.1,0.6,0.2c0.2,0.2,0.3,0.4,0.3,0.6
	c0,0.2-0.1,0.4-0.1,0.6c-0.1,0.2-0.3,0.3-0.5,0.4c-0.1,0-3.3,1.1-6.6,2.5c-5.8,2.5-6.3,3.7-6.3,3.8c0.9,1.2,5.3-0.9,8.1-2.2
	c2.2-1,4.4-2,5.9-2.3c1.5-0.2,4.6,1.1,14.7,12.7c2.5-1.1,4.8-2.5,6.8-4.3V289c0-2,0.7-4,1.9-5.5c1.2-1.6,2.9-2.7,4.9-3.2
	c0.6-1.1,1-2.3,1.4-3.5C155.1,274.7,151.5,272.5,147.8,270.3z M152.2,289.1c0,1.9,0.8,3.7,2.1,5.1c1.3,1.3,3.2,2.1,5.1,2.1
	s3.7-0.8,5.1-2.1c1.3-1.3,2.1-3.2,2.1-5.1c0-0.7-0.1-1.3-0.3-1.9c-0.1-0.2-0.2-0.4-0.2-0.6c-0.6-1.6-1.7-2.9-3.1-3.8
	c-1.5-0.9-3.2-1.2-4.8-0.9c-1.7,0.3-3.2,1.2-4.2,2.5C152.8,285.7,152.2,287.4,152.2,289.1L152.2,289.1z M186.8,244.8
	c-0.2-0.2-0.4-0.4-0.6-0.5c-0.2-0.1-0.5-0.2-0.8-0.2c-3.1-0.3-12.3,7.3-17.5,12.4c-5.3,6.2-9.8,11.9-12.8,16.2
	c10.8,6.4,20.6,12.7,26.3,16.6c1-11.9,3.2-23.7,6.5-35.1C188.3,252,188.5,246.8,186.8,244.8L186.8,244.8z M245.2,195.5l0.8,2.5
	c0,0.1,0.1,0.2,0,0.3c0,0.1,0,0.2-0.1,0.3c-0.1,0.1-0.1,0.2-0.2,0.3c-0.1,0.1-0.2,0.1-0.3,0.2c-0.1,0-0.2,0.1-0.3,0.1
	c-0.2,0-0.4-0.1-0.5-0.2c-0.1-0.1-0.3-0.3-0.3-0.4l-13.8-41.3c0-0.1-0.1-0.2,0-0.3c0-0.1,0-0.2,0.1-0.3c0.1-0.1,0.1-0.2,0.2-0.3
	c0.1-0.1,0.2-0.1,0.3-0.2c0.1,0,0.2,0,0.2,0c2.4-0.4,4.1-1.6,4.8-3.5c0.9-2.3,0.1-5.5-1.7-7.6c-0.7-0.8-2.2-2.1-4.1-1.7
	c-3.5,0.8-4.7,3.7-5.1,5.9c-0.1,0.5-0.3,0.9-0.6,1.3c-0.3,0.4-0.7,0.7-1.1,0.9c-0.4,0.2-0.9,0.3-1.4,0.3c-0.5,0-1-0.1-1.4-0.4
	c-6.7-3.7-13.2-10.2-17.6-17.8c-3.1-5.4-5-10.8-5.5-15.7c-4.5,6.4-8,13.4-10.5,20.8c0,0.1,0,0.1,0,0.2c-0.5,1.4-1.5,2.6-2.8,3.3
	c-1.3,0.7-2.8,1-4.3,0.7c-1.2-0.2-2.1,0-2.5,0.6c-0.2,0.3-0.3,0.5-0.3,0.9c0,0.3,0,0.6,0.1,0.9c0.3,0.4,0.6,0.8,1.1,1.1
	c0.4,0.3,0.9,0.5,1.4,0.6c1.2,0.2,2.4-0.2,3.7-1.3c0.1-0.1,0.2-0.1,0.3-0.2c0.1,0,0.2-0.1,0.3,0c0.1,0,0.2,0,0.3,0.1
	c0.1,0.1,0.2,0.1,0.3,0.2c0.1,0.1,0.2,0.3,0.2,0.4c0.1,0.2,0.1,0.4,0.1,0.5c-2.7,13.8,1.4,19.5,5.3,22c11.6,7.2,24-1.3,24.1-1.4
	c0.1-0.1,0.2-0.1,0.3-0.2s0.2,0,0.4,0c0.1,0,0.2,0.1,0.3,0.1c0.1,0.1,0.2,0.1,0.3,0.2c0.1,0.2,0.2,0.4,0.2,0.6
	c0,0.2-0.1,0.4-0.2,0.5c-4,6.8-5.8,14.7-5,22.6v0l3.3,13.5v0c0,0.1,0,0.1,0,0.1v0.1c0,0.1,0,0.1,0,0.2v0c0,0.2-0.1,0.3-0.2,0.4
	l-0.2,0.2c-2.5,3.2-4.9,6.5-6.9,10c10.1,5.6,20.2,7,29.9,4.2c17.6-5.1,29-22.5,31.7-27.1C260.6,193.2,252.8,194,245.2,195.5
	L245.2,195.5z M270.4,192.8c-2.5,4.3-5.4,8.4-8.7,12.1c-5.2,5.9-13.7,13.7-24.6,16.8c-3.3,1-6.8,1.5-10.3,1.5c-6.9,0-13.9-2-21-5.9
	c-1,1.7-2.1,3.6-3.2,5.6c3.9,2.5,8.1,4.3,12.6,5.3c7.4,1.8,19,2.5,32.8-4c12.9-6.1,20.4-14.6,24.3-20.6c2.2-3.4,4-7,5.3-10.8
	C275.1,192.8,272.7,192.8,270.4,192.8L270.4,192.8z M377.9,353.5c6.6-12.8,10.5-26.9,11.4-41.3c0.8-13.6-0.8-27.2-4.9-40.3
	c-6.8-22.1-19.9-42-36.7-56c-5.5,8.1-0.6,28.8-9,27.8c-9.2-1.1-0.6-14.2-6.4-33.8c-0.6-2.2-2.4-4.4-3.1-6.1
	c-6.5-3.1-13.3-5.6-20.3-7.3c-9.7-2.3-19.6-3.6-29.6-3.8c-1.3,4.2-3.2,8.1-5.6,11.7c-4,6.2-11.7,15-25.1,21.3
	c-7.2,3.5-15,5.3-23,5.4c-3.7,0-7.4-0.4-11-1.4c-4.6-1-8.9-2.9-12.9-5.4c-0.6,1.1-1.2,2.2-1.7,3.4c-4.2,8.5-7.6,17.4-10.3,26.6
	c0,0.1-0.1,0.2-0.1,0.3c0,0.1-0.1,0.2-0.1,0.3c-3.3,11.6-5.5,23.4-6.4,35.4c0.4,0.3,0.8,0.5,1.1,0.8c1.3,0.9,2.7,2,4.3,3.1
	c7.6,5.5,19.1,13.7,31.6,19.4c9.6,4.3,18.4,6.5,26.2,6.5c4,0,8.1-0.6,11.9-1.9c11-3.8,17.1-12.6,18-26.1c0.3-6.6-0.3-13.2-2-19.6
	c-0.1-0.2,0-0.5,0.1-0.7c0.1-0.2,0.3-0.4,0.5-0.4c0.2-0.1,0.5,0,0.7,0.1c0.2,0.1,0.4,0.3,0.4,0.5c1.8,6.6,2.5,13.3,2.1,20.1
	c-0.2,3.4-0.8,6.8-1.9,10.1c7.9-0.3,15.8,0.1,23.7,1.2c12.6,1.8,30.4,6.5,43.4,18.4c18.3,16.8,26.4,37.2,28.3,42.7
	C373.7,361.2,375.8,357.5,377.9,353.5z M218.8,377.7c2.9,2.4,5.9,4.9,9.2,7.4c13.3,10.3,25.4,17.8,36,22.4c2.3,1,4.7,1.8,7.2,2.4
	c19.2,5.2,38.7,3.8,56.2-4.2c10.1-4.7,19.3-11.1,27-19.1c4.3-4.3,8.2-8.9,11.7-13.9c-1.1-4.4-2.7-8.8-4.7-12.9
	c-3.5-7.4-10-19-21.7-32.1c-11.6-13-28.5-18.6-40.6-21.1c-7.8-1.6-15.8-2.4-23.8-2.3c-1.3,3.3-3.2,6.3-5.6,8.9
	c6.7,7,27.1,5.9,25.6,14.2c-1.9,8.5-13,3.6-32.4-2.8c-5.1-1.6-10.3-2.5-15.6-2.6c-0.4,0-0.7,0-1.1,0c-8.1,0-17.1-2.2-26.9-6.7
	c-12.6-5.8-24.2-14.1-31.9-19.6c-1.6-1.1-3-2.2-4.3-3c-2.8-2-7.9-5.3-14.1-9.3c-0.3,0.8-0.6,1.9-1.2,3.2c0.2,0.8,0.3,1.6,0.3,2.5
	c0,2.2-0.8,4.4-2.3,6.1c-1.5,1.7-3.6,2.7-5.8,2.9l0,0c-2.5,2.3-5.6,3.9-8.9,4.5c7.6,9.4,15.1,19.4,19.4,25.1
	C178.8,338.8,197.6,359.6,218.8,377.7z M181.3,376.2c5.8-4.6,5.5-17.6,5-24c-0.1-0.5-0.1-0.9-0.2-1.3c-0.2-0.9-0.4-1.9-0.6-2.8
	c-5.8-6.1-11.2-12.6-16.3-19.3c-2.7-3.7-6.8-9.2-11.5-15.2c2.1,4.6,3.9,9.3,5.5,14.1c5.1,15.8,7.6,32.4,7.7,49
	C175.3,378.4,178.8,378.2,181.3,376.2L181.3,376.2z M26.8,254.1c1.6,1.4,3.3,2.7,5.1,4c2.2,1.6,4,2.9,4.8,4c0.4,0.4,1.1,1.9,3,5.3
	c8.7,16.3,35.3,66,66.1,90.9c16.3,13.1,33.9,22,52.5,26.4c3.5,0.8,7,1.5,10.5,2l0.3-7.2c0.2-17.3-2.3-34.5-7.5-51
	c-4.5-13.8-9.4-21.7-9.5-21.8c-0.1-0.1-0.1-0.2-0.1-0.2c-2.4-3-4.8-5.9-7.1-8.7c-1.8-2.2-3.4-4-4.9-5.6c-3.6,3.8-7.7,7.2-12.1,10
	c7.5,2.8,17.5,3.5,16.6,9.1c-1.7,7.4-11.4,3.1-28.3-2.5c-2.5-0.8-5.1-1.4-7.7-1.8c0.1,0,0.3,0,0.4,0c-0.7-0.1-1.4-0.2-2.1-0.4
	c-9.7-2.1-22.3-13.8-31.1-23.3c-9.8-10.6-18-21.6-19.1-24.2c-0.9-2.3-2-6.6-3.1-10.7c-0.9-3.3-1.9-7.4-2.5-8.7
	c-0.1,0.1-0.2,0.2-0.2,0.2c-0.6,0.8-1.9,3.8,0.2,13.7c0,0.2,0,0.5-0.1,0.7c-0.1,0.2-0.3,0.3-0.6,0.4c-0.2,0.1-0.5,0-0.7-0.1
	c-0.2-0.1-0.3-0.3-0.4-0.5c0-0.1-0.1-0.3-0.1-0.4c-0.1,0-0.2-0.1-0.2-0.1c0-0.1-5.3-5.2-7.3-7c-1.2-1.2-2.4-2.3-3.4-3.3
	c-3.4-3.3-6.3-6.1-7.2-5.4c0,0.2,0.2,1.2,2.3,3.9c2.9,3.6,5.9,7,9.1,10.2c0.1,0.1,0.1,0.2,0.2,0.3c0,0.1,0.1,0.2,0.1,0.3
	c0,0.1,0,0.2-0.1,0.3c0,0.1-0.1,0.2-0.2,0.3c-0.1,0.1-0.2,0.1-0.3,0.2c-0.1,0-0.2,0.1-0.3,0.1c-0.1,0-0.2,0-0.3-0.1
	c-0.1,0-0.2-0.1-0.3-0.2c-4.3-4.5-8.5-9-10.5-12.2c-0.1,0-0.3-0.1-0.4-0.2c-0.6-0.5-1.6-1-1.9-0.9c0,0-0.1,0.1-0.1,0.3
	c-0.4,1.6,3.4,6.2,5.9,9.3c3.3,4,5.1,6.3,4.8,7.7c0,0.2-0.1,0.4-0.2,0.6c-0.1,0.2-0.3,0.3-0.4,0.4c-1.6,1-4.1-0.5-8.1-3.2
	c-1.6-1.1-4.3-2.9-5.2-3C25.1,252.1,25.3,252.8,26.8,254.1z"/>
<path class="st2" d="M215.3,411.4c-8.1-10.7-14.6-22.5-19.5-35c-1.1-2.9-2.3-6.2-3.4-9.4c-1.1-3.5-2.2-7-3.1-10.6
	c-0.4-1.7-0.9-3.5-1.3-5.2c0-0.1,0-0.3,0-0.4c3.1,3.3,6.4,6.7,9.9,10.1c0.9,15,12,20.9,19.4,24.7c2.8,1.5,2.5,4.1,1.7,8.2
	c-0.8,4.2-1.8,9.4,3.2,13.3c3.6,2.8,6.9,3.1,9.8,3.4c4.3,0.4,8.1,0.8,12.2,9.5c5.2,11,11.3,13.4,14.4,13.8c-3.4,2.9-6.7,5.6-9.9,8.1
	C235.7,433.8,224.5,423.5,215.3,411.4L215.3,411.4z"/>
<path class="st3" d="M294.7,394.6c4.7,0,9.3-0.7,13.7-2.3c0.6-0.2,1.2-0.5,1.8-0.7c0.7-0.3,1.4-0.8,1.9-1.4c0.5-0.6,0.9-1.4,1.1-2.1
	s0.2-1.6,0-2.4c-0.2-0.8-0.6-1.5-1.1-2.1c-0.7-0.8-1.7-1.4-2.8-1.7c-1.1-0.3-2.2-0.2-3.2,0.3c-0.5,0.2-1.1,0.4-1.7,0.7
	c-4.5,1.5-9.6,1.9-15.2,1.1c-1.4-0.2-2.7,0.2-3.8,1c-1.1,0.8-1.8,2.1-2,3.4c-0.2,1.4,0.2,2.7,1,3.8c0.8,1.1,2,1.8,3.4,2
	C290.1,394.4,292.4,394.6,294.7,394.6L294.7,394.6z"/>
<path class="st3" d="M132.2,365.9c1.2,0,2.4-0.4,3.4-1.2s1.6-1.9,1.8-3.1c0.2-1.2,0-2.5-0.7-3.5s-1.6-1.8-2.8-2.2
	c-5.5-2.1-10.6-5.3-14.8-9.4c-1-0.9-2.3-1.5-3.6-1.4c-1.4,0-2.6,0.6-3.6,1.5c-1,1-1.5,2.3-1.5,3.6c0,1.4,0.5,2.7,1.4,3.6
	c5.4,5.3,11.8,9.4,18.9,11.9C131.2,365.8,131.7,365.9,132.2,365.9L132.2,365.9z"/>
<path class="st2" d="M385.3,232.9c0.1,0,0.3,0,0.4-0.1c0.1-0.1,0.2-0.2,0.3-0.3c13.9-19.2,34.6-32.5,34.8-32.6
	c0.1-0.1,0.2-0.1,0.3-0.2c0.1-0.1,0.1-0.2,0.1-0.3c0-0.1,0-0.2,0-0.4c0-0.1-0.1-0.2-0.1-0.3c-0.1-0.1-0.1-0.2-0.2-0.3
	c-0.1-0.1-0.2-0.1-0.3-0.1c-0.1,0-0.2,0-0.4,0c-0.1,0-0.2,0.1-0.3,0.1c-0.2,0.1-21.1,13.6-35.3,33.1c-0.1,0.1-0.1,0.2-0.1,0.3
	c0,0.1,0,0.2,0,0.3c0,0.1,0.1,0.2,0.1,0.3c0.1,0.1,0.1,0.2,0.2,0.3C384.9,232.8,385.1,232.9,385.3,232.9L385.3,232.9z"/>
<path class="st3" d="M453.9,231.8c-5.7,0-10.3-4.6-10.3-10.3c0-5.7,4.6-10.3,10.3-10.3c5.7,0,10.3,4.6,10.3,10.3
	C464.2,227.2,459.6,231.8,453.9,231.8z"/>
<path class="st3" d="M453.9,233.1c2.3,0,4.5-0.7,6.4-2s3.4-3.1,4.3-5.2c0.9-2.1,1.1-4.4,0.7-6.7c-0.4-2.2-1.5-4.3-3.2-5.9
	c-1.6-1.6-3.7-2.7-5.9-3.2c-2.2-0.4-4.6-0.2-6.7,0.7c-2.1,0.9-3.9,2.4-5.2,4.3s-2,4.1-2,6.4c0,3.1,1.2,6,3.4,8.2
	C447.8,231.9,450.8,233.1,453.9,233.1z M453.9,212.5c1.8,0,3.5,0.5,5,1.5c1.5,1,2.6,2.4,3.3,4c0.7,1.6,0.9,3.5,0.5,5.2
	c-0.3,1.8-1.2,3.4-2.5,4.6c-1.3,1.3-2.9,2.1-4.6,2.5c-1.7,0.3-3.6,0.2-5.2-0.5s-3.1-1.8-4-3.3c-1-1.5-1.5-3.2-1.5-5
	c0-2.4,1-4.7,2.6-6.4C449.2,213.4,451.5,212.5,453.9,212.5L453.9,212.5z"/>
<path class="st3" d="M386.3,207.8c-2.5,0-4.5-2-4.5-4.5c0-2.5,2-4.5,4.5-4.5c2.5,0,4.5,2,4.5,4.5
	C390.8,205.8,388.8,207.8,386.3,207.8z"/>
<path class="st3" d="M386.3,208.4c1,0,2-0.3,2.8-0.8c0.8-0.6,1.5-1.3,1.9-2.3c0.4-0.9,0.5-1.9,0.3-2.9c-0.2-1-0.7-1.9-1.4-2.6
	c-0.7-0.7-1.6-1.2-2.6-1.4c-1-0.2-2-0.1-2.9,0.3c-0.9,0.4-1.7,1-2.3,1.9c-0.6,0.8-0.8,1.8-0.8,2.8c0,0.7,0.1,1.3,0.4,1.9
	c0.3,0.6,0.6,1.2,1.1,1.6c0.5,0.5,1,0.8,1.6,1.1C385,208.2,385.6,208.4,386.3,208.4L386.3,208.4z M386.3,199.4
	c0.8,0,1.5,0.2,2.2,0.7c0.6,0.4,1.1,1,1.4,1.8c0.3,0.7,0.4,1.5,0.2,2.3c-0.1,0.8-0.5,1.5-1.1,2c-0.5,0.5-1.2,0.9-2,1.1
	c-0.8,0.2-1.5,0.1-2.3-0.2c-0.7-0.3-1.3-0.8-1.8-1.4c-0.4-0.6-0.7-1.4-0.7-2.2c0-0.5,0.1-1,0.3-1.5c0.2-0.5,0.5-0.9,0.8-1.3
	c0.4-0.4,0.8-0.7,1.3-0.8C385.3,199.5,385.8,199.4,386.3,199.4L386.3,199.4z"/>
<path class="st3" d="M147.9,372.4c1.3,0,2.5-0.5,3.4-1.3c0.9-0.8,1.5-2,1.7-3.2c0.2-1.2-0.1-2.5-0.8-3.6c-0.7-1-1.8-1.8-3-2.1
	l-2.1-0.5c-1.3-0.3-2.7-0.1-3.9,0.6c-1.2,0.7-2,1.8-2.4,3.1c-0.3,1.3-0.2,2.7,0.5,3.9c0.7,1.2,1.8,2,3.1,2.4l2.1,0.5
	C147.1,372.3,147.5,372.4,147.9,372.4z"/>
<path class="st1" d="M357.1,46.8c-3.8,0-6.8-3-6.8-6.8c0-3.8,3-6.8,6.8-6.8c3.8,0,6.8,3,6.8,6.8C363.9,43.7,360.8,46.8,357.1,46.8z"
	/>
<path class="st1" d="M340.5,37.2c-1.8,0-3.3-1.5-3.3-3.3c0-1.8,1.5-3.3,3.3-3.3c1.8,0,3.3,1.5,3.3,3.3
	C343.8,35.7,342.3,37.2,340.5,37.2z"/>
<path class="st3" d="M343.2,433.4c6.8-0.2,14.9-3,24.2-8.5c4.1-2.4,8.1-5.1,11.8-8.1c0.1-0.1,0.2-0.2,0.2-0.3
	c0.1-0.1,0.1-0.2,0.1-0.3c0-0.1,0-0.2,0-0.3c0-0.1-0.1-0.2-0.2-0.3c-0.1-0.1-0.2-0.2-0.3-0.2c-0.1-0.1-0.2-0.1-0.3-0.1
	c-0.1,0-0.2,0-0.3,0c-0.1,0-0.2,0.1-0.3,0.2c-0.2,0.1-19.4,15.8-34.9,16.2c-0.1,0-0.2,0-0.3,0.1c-0.1,0-0.2,0.1-0.3,0.2
	c-0.1,0.1-0.1,0.2-0.2,0.3c0,0.1-0.1,0.2-0.1,0.3c0,0.1,0,0.2,0.1,0.3c0,0.1,0.1,0.2,0.2,0.3c0.1,0.1,0.2,0.1,0.3,0.2
	C342.9,433.4,343,433.4,343.2,433.4L343.2,433.4z"/>
<path class="st2" d="M203.7,424.4c4-5,7.9-9.2,10.3-11.7l1.1,1.4c-6.2,6.4-22.4,24.3-22.6,36.4c0,0.2-0.1,0.4-0.3,0.6
	c-0.2,0.2-0.4,0.2-0.6,0.2c-0.1,0-0.2,0-0.3-0.1c-0.1,0-0.2-0.1-0.3-0.2c-0.1-0.1-0.1-0.2-0.2-0.3s-0.1-0.2-0.1-0.3
	C190.9,443.9,195.2,435.2,203.7,424.4z"/>
<path class="st2" d="M15.1,43.6c2.6-2.4,8.8-3.9,13.9-0.6c6.3,3.9,12,8.9,16.7,14.7c0,0,12.2-7.3,19.1-18.2
	c6.9-10.9,9.1-14.1,13.5-24c0,0,7.7,20.3,0.3,38.3c0,0,26.4-14.7,33.8-21.7c0,0,2.8,12.3-0.6,25l-9.9,1.7l7.7,3.5
	c0,0-4.4,10.5-14.5,16.5c-10.1,6-19.4,5.5-19.4,5.5l34.2,22.7c0,0,7.9,3.7,5.9,6.5c-2.1,2.8-9.6,11.4-22.3,7.2l-20.9-20.2
	c0,0-15.8-0.6-22.8-2c-7-1.4-12.2-6.2-15.5-11.9c-3.4-5.8-6.5-11.7-6.4-15.8c0.1-4.1-3-11.8-5.5-12.7c-2.6-1-8.5-2.1-9.1-7.5
	C12.7,45,15.1,43.6,15.1,43.6z"/>
<path class="st3" d="M21.1,46.1c0.5,0,1.1,0.2,1.5,0.5c0.4,0.3,0.8,0.7,1,1.2c0.2,0.5,0.3,1,0.2,1.6c-0.1,0.5-0.4,1-0.7,1.4
	s-0.9,0.6-1.4,0.7c-0.5,0.1-1.1,0.1-1.6-0.2c-0.5-0.2-0.9-0.6-1.2-1c-0.3-0.4-0.5-1-0.5-1.5c0-0.4,0.1-0.7,0.2-1
	c0.1-0.3,0.3-0.6,0.6-0.9c0.3-0.3,0.6-0.5,0.9-0.6C20.4,46.2,20.8,46.1,21.1,46.1z"/>
<path class="st3" d="M6.6,53.1l5.8-5.2c0.2-1.6,0.8-3.1,1.7-4.3c2.3-2.9,6.4-3.9,11.6-3c7.1,1.2,15.4,9.7,20.7,16l1.2-0.7
	c4.9-3.4,20.9-16.3,30.1-41.4c0.1-0.2,0.2-0.3,0.3-0.4c0.1-0.1,0.3-0.2,0.5-0.2c0.2,0,0.4,0.1,0.5,0.2c0.1,0.1,0.3,0.3,0.3,0.4
	c1.4,4.3,2.5,8.8,3.1,13.3c0.9,6.6,1.2,15.9-1.8,24.2c10.8-6.2,21.3-13,31.2-20.5c0.1-0.1,0.2-0.2,0.4-0.2c0.1,0,0.3,0,0.4,0
	c0.1,0,0.3,0.1,0.4,0.2s0.2,0.2,0.2,0.4c1.7,8.4,1.5,17.1-0.6,25.4c0,0.2-0.1,0.3-0.3,0.4c-0.1,0.1-0.3,0.2-0.4,0.2l-7.5,1.2
	l5.5,2.3c0.2,0.1,0.4,0.2,0.5,0.4c0.1,0.2,0.1,0.4,0,0.6c-1.8,5.2-6.6,10.7-10.4,13.7c-6.2,5-13.7,8.1-21.7,8.7l37.1,24.7
	c0.7,0.4,1.1,1.1,1.3,1.8c0.2,0.8,0.1,1.6-0.3,2.2c-2.6,4.6-7.2,7.5-13.4,8.5c-1.4,0.2-2.9,0.3-4.3,0.3c-1.4,0-2.7-0.1-4.1-0.3
	c-0.2,0-0.3,0-0.5-0.1l-1.2-0.8c-8.3-5.2-15.4-12-20.9-20.1c-0.6,0-1.1,0-1.8,0c-3.2,0-7.4-0.1-11.6-0.5l0.2,1.3
	c0.9,0,1.8-0.2,2.6-0.6c0.2-0.1,0.4-0.1,0.7,0c0.2,0.1,0.4,0.2,0.5,0.4s0.1,0.4,0.1,0.7c-0.1,0.2-0.2,0.4-0.4,0.5
	c-0.7,0.3-1.4,0.5-2.2,0.6c1.4,0.4,2.9,0.3,4.3-0.3c0.1-0.1,0.2-0.1,0.3-0.1c0.1,0,0.2,0,0.3,0c0.1,0,0.2,0.1,0.3,0.2
	c0.1,0.1,0.2,0.2,0.2,0.3c0.1,0.1,0.1,0.2,0.1,0.3c0,0.1,0,0.2,0,0.3c0,0.1-0.1,0.2-0.2,0.3s-0.2,0.2-0.3,0.2
	c-1.1,0.5-2.2,0.8-3.4,0.8c-1.6,0-3.2-0.6-4.4-1.7c-0.1-0.1-0.2-0.3-0.3-0.4l-2.7-2.9c-0.2-0.2-0.3-0.4-0.4-0.6
	c-4.6-0.8-8.9-2-11.9-3.9c-10.3-6.6-14.2-21.4-16.8-31.1c-0.8-3-1.9-4.6-3.2-5.6c0,0-0.1,0-0.1-0.1c-0.1-0.1-0.2-0.1-0.3-0.2
	c-0.9-0.6-2-1-3-1.4c-2-0.8-4.1-1.5-5.4-4.2l-6,1.1H7.2c-0.2,0-0.3-0.1-0.5-0.1c-0.1-0.1-0.3-0.2-0.4-0.3c-0.1-0.2-0.1-0.4,0-0.6
	C6.4,53.5,6.5,53.3,6.6,53.1z M78.3,53.1c3.7-8.4,3.4-18.3,2.4-25.1c-0.5-3.6-1.2-7.1-2.2-10.6C74,28.8,67.4,39.2,59.1,48.1
	c-2.1,2.2-4.2,4.2-6.5,6.1c1.6,3.1,4.6,4.9,8.9,4.9c2.1,0,4.3-0.3,6.3-0.9c3.4-1.5,7-3.2,10.4-5.1C78.2,53.2,78.2,53.2,78.3,53.1z
	 M14.9,52.5c0.9,2.2,2.5,2.8,4.5,3.6c1.3,0.4,2.5,1,3.6,1.7c0.2,0.1,0.4,0.2,0.6,0.3c1.9,1,7.8,3.9,11.9,6.5
	c3.6,2.3,3.7,4.4,3.4,5.4c-0.1,0.6-0.4,1.1-0.9,1.4c-0.4,0.4-1,0.6-1.6,0.7c-1,0-2-0.2-2.9-0.6c-0.4-0.2-0.8-0.2-1.2-0.2
	c-0.4,0-0.8,0.2-1.1,0.4c-0.3,0.2-0.6,0.5-0.8,0.9c-0.2,0.4-0.3,0.7-0.3,1.2v1.3c2.6,7.6,6.4,15.4,12.9,19.6
	c3.9,2.5,10.9,4.1,20.2,4.6c4.4,0.2,8.7,0.2,13.1,0c0.2,0,0.3,0,0.5,0c0,0,0.1,0,0.1,0c0.2,0.1,0.3,0.2,0.4,0.3l3.7,4.4l14.1,16.4
	c2.1,0.3,14.7,1.6,19.8-7.6c0.2-0.3,0.2-0.6,0.1-1c-0.1-0.3-0.3-0.6-0.6-0.8L91.7,95.9c-0.3,0.6-0.8,1.1-1.3,1.5
	c-0.5,0.4-1.2,0.7-1.8,0.8c-0.4,0.1-0.8,0.1-1.2,0.1c-8.2,0-23.5-13.7-25.7-15.7c0,0,0,0,0,0c-0.2-0.1-0.4-0.3-0.5-0.5
	c-0.1-0.2-0.1-0.5,0-0.7c0.1-0.1,0.2-0.2,0.3-0.3c0.1-0.1,0.3-0.2,0.5-0.2s0.4,0,0.5,0.1c0.1,0.1,0.3,0.1,0.5,0.2
	c1.1,0.4,2.1,0.7,3.2,1c3.1,0.6,6.2,1,9.3,1.1c0.1,0,0.3,0,0.4,0c7.8-0.2,15.3-2.7,21.6-7.4L91,74.5c-0.1,0-0.2-0.1-0.3-0.1
	c-0.1-0.1-0.2-0.2-0.2-0.3c-0.1-0.1-0.1-0.2-0.1-0.3c0-0.1,0-0.2,0-0.4c0-0.1,0.1-0.2,0.1-0.3c0.1-0.1,0.2-0.2,0.3-0.2
	c0.1-0.1,0.2-0.1,0.3-0.1c0.1,0,0.2,0,0.4,0l8,1.7c1.2-1,2.3-2.1,3.3-3.2l-16.5-3.8c-0.2-0.1-0.4-0.2-0.5-0.4
	c-0.1-0.2-0.2-0.4-0.1-0.7c0.1-0.2,0.2-0.4,0.4-0.5c0.2-0.1,0.4-0.2,0.7-0.1l17.4,4c1.8-2.1,3.3-4.5,4.5-7.1l-7.6-3.2
	c-0.2-0.1-0.3-0.2-0.4-0.4c-0.1-0.2-0.1-0.4-0.1-0.5c0-0.2,0.1-0.4,0.2-0.5c0.1-0.1,0.3-0.2,0.5-0.3l10-1.6
	c1.7-7.4,1.9-15.1,0.7-22.6c-3,2.2-11.4,8.5-21.5,14.7c-8.8,5.4-16.6,9.5-23.3,12.3c-8.7,3.7-13.7,4.1-15.4,4.1h-0.1
	c-0.2,0-0.3,0-0.5,0c-0.2,0-0.4-0.1-0.5-0.2c-0.2-0.1-0.3-0.3-0.3-0.5C48.5,61.8,35.3,44,25.5,42.3c-4.6-0.8-8.1,0-9.9,2.4
	C13.9,46.7,13.7,49.7,14.9,52.5L14.9,52.5z"/>
<path class="st1" d="M92.5,134.9l-62.1-6l-1.2,35.6l62.1,5.6L92.5,134.9z"/>
<path class="st2" d="M42.4,130.2l50,4.8l-0.6,18.8C71.3,154.7,51.5,138.7,42.4,130.2z"/>
<path class="st3" d="M92.5,135.8c0.3,0,0.4-0.1,0.6-0.3c0.3-0.3,0.3-0.9-0.1-1.2l-35.1-31.6c-0.3-0.3-0.8-0.3-1.2,0l-27,25.6
	c-0.3,0.3-0.3,0.9,0,1.2c0.3,0.3,0.8,0.3,1.2,0l26.5-25l34.5,31C92,135.7,92.3,135.8,92.5,135.8z"/>
<path class="st1" d="M91.3,171c0.2,0,0.4-0.1,0.6-0.3s0.3-0.3,0.3-0.6l1.2-35.2c0-0.4-0.3-0.9-0.8-0.9l-62.1-5.9
	c-0.3,0-0.4,0.1-0.7,0.2c-0.2,0.2-0.3,0.3-0.3,0.6l-1.2,35.6c0,0.4,0.3,0.9,0.8,0.9L91.3,171z M91.6,135.7l-1.1,33.6L30,163.8
	l1.1-33.9L91.6,135.7z"/>
<path class="st3" d="M63,154.6c0.2,0,0.3-0.1,0.4-0.2l29.4-18.8c0.4-0.3,0.5-0.8,0.3-1.2c-0.3-0.4-0.8-0.5-1.2-0.3L63,152.7
	l-32.2-24.3c-0.3-0.3-0.9-0.2-1.2,0.2c-0.3,0.3-0.2,0.9,0.2,1.2l32.7,24.7C62.7,154.5,62.9,154.6,63,154.6z"/>
<path class="st3" d="M91.3,171c0.2,0,0.3-0.1,0.5-0.2c0.3-0.3,0.4-0.9,0.2-1.2l-17.1-23.4c-0.3-0.3-0.8-0.4-1.2-0.2
	c-0.3,0.3-0.4,0.9-0.2,1.2l17.1,23.4C90.8,170.9,91,171,91.3,171z"/>
<path class="st3" d="M29.2,165.4c0.2,0,0.4-0.1,0.6-0.3l21.3-20c0.3-0.3,0.3-0.9,0-1.2c-0.3-0.3-0.8-0.3-1.2,0L28.5,164
	c-0.3,0.3-0.3,0.9,0,1.2C28.7,165.3,28.9,165.4,29.2,165.4z"/>
<path class="st3" d="M63,153.7c0,0,19.4-13.8,25.9-12.7c3.7,0.7,3.1,9.3,3.1,9.3l0.5-15.4L63,153.7z"/>
<path class="st3" d="M63,154.6c0.2,0,0.3-0.1,0.4-0.2l11.1-7.1c5.5-3.1,11.4-6,14.2-5.4c2,0.3,2.4,4.3,2.4,6.8l-0.1,1.6
	c0,0.4,0.3,0.9,0.8,0.9c0.5,0,0.8-0.3,0.9-0.8c0-0.3,0.1-0.9,0.1-1.9l0.5-13.6c0-0.3-0.2-0.6-0.4-0.8c-0.3-0.2-0.6-0.2-0.8,0
	l-18.2,11.7c-5.8,3.3-10.9,6.9-11.2,7.1c-0.3,0.3-0.5,0.8-0.3,1.2C62.4,154.4,62.8,154.6,63,154.6z M91.5,136.4l-0.2,5.4
	c-0.6-0.9-1.3-1.4-2.3-1.6c-1.1-0.2-2.5,0-4,0.4L91.5,136.4z"/>
<path class="st3" d="M49.8,144c0,0-18.1-15.8-19.8-5.4l0.3-9.6L49.8,144z"/>
<path class="st3" d="M49.8,144.9c0.3,0,0.5-0.1,0.7-0.3c0.3-0.3,0.3-0.9-0.1-1.2c-0.5-0.5-2.9-2.6-5.9-4.5l-13.7-10.5
	c-0.3-0.2-0.6-0.3-0.8-0.1c-0.3,0.2-0.5,0.4-0.5,0.8l-0.3,9.6c0,0.4,0.3,0.9,0.8,0.9c0.4,0,0.8-0.3,0.9-0.7c0.3-1.4,0.8-2.3,1.7-2.6
	c2.5-0.9,7.1,1.6,11.1,4.3l5.6,4.3C49.5,144.8,49.6,144.9,49.8,144.9z M33.8,134.2c-0.6,0-1.2,0.1-1.7,0.3c-0.3,0.2-0.7,0.3-1,0.6
	l0.1-4.3l5,3.8C35.3,134.3,34.5,134.2,33.8,134.2z"/>
</svg>
