<svg width="20" height="21" viewBox="0 0 20 21" fill="none" xmlns="http://www.w3.org/2000/svg">
<g opacity="0.5">
<path fill-rule="evenodd" clip-rule="evenodd" d="M20 4.80581C20 3.63372 19.5349 2.51 18.706 1.68116C17.8772 0.852323 16.7535 0.387207 15.5814 0.387207H4.4186C3.24651 0.387207 2.12279 0.852323 1.29395 1.68116C0.465116 2.51 0 3.63372 0 4.80581V15.9686C0 17.1407 0.465116 18.2644 1.29395 19.0933C2.12279 19.9221 3.24651 20.3872 4.4186 20.3872H15.5814C16.7535 20.3872 17.8772 19.9221 18.706 19.0933C19.5349 18.2644 20 17.1407 20 15.9686V4.80581ZM10.454 6.8179L8.2214 13.5156C8.10046 13.8812 8.29767 14.2765 8.66326 14.3984C9.02884 14.5193 9.42419 14.3221 9.54605 13.9565L11.7786 7.25884C11.8995 6.89325 11.7023 6.49791 11.3367 6.37604C10.9712 6.25511 10.5758 6.45232 10.454 6.8179ZM12.8558 8.64767L14.5944 10.3872L12.8558 12.1267C12.5833 12.3984 12.5833 12.8412 12.8558 13.1128C13.1274 13.3853 13.5702 13.3853 13.8419 13.1128L16.0744 10.8802C16.347 10.6077 16.347 10.1667 16.0744 9.89418L13.8419 7.66163C13.5702 7.38907 13.1274 7.38907 12.8558 7.66163C12.5833 7.93325 12.5833 8.37604 12.8558 8.64767ZM6.15814 7.66163L3.92558 9.89418C3.65302 10.1667 3.65302 10.6077 3.92558 10.8802L6.15814 13.1128C6.42977 13.3853 6.87256 13.3853 7.14419 13.1128C7.41674 12.8412 7.41674 12.3984 7.14419 12.1267L5.40558 10.3872L7.14419 8.64767C7.41674 8.37604 7.41674 7.93325 7.14419 7.66163C6.87256 7.38907 6.42977 7.38907 6.15814 7.66163Z" fill="white"/>
</g>
</svg>
