<svg width="22" height="16" viewBox="0 0 22 16" fill="none" xmlns="http://www.w3.org/2000/svg">
<path opacity="0.5" fill-rule="evenodd" clip-rule="evenodd" d="M0 2.4C0 1.07452 1.10559 0 2.46939 0H19.5306C20.8945 0 22 1.07452 22 2.4V3.2H0V2.4ZM0 4.8H22V13.6C22 14.9255 20.8945 16 19.5306 16H2.46939C1.10559 16 0 14.9255 0 13.6V4.8ZM13.1701 10.4C12.7155 10.4 12.3469 10.7582 12.3469 11.2C12.3469 11.6418 12.7155 12 13.1701 12H17.0612C17.5158 12 17.8844 11.6418 17.8844 11.2C17.8844 10.7582 17.5158 10.4 17.0612 10.4H13.1701Z" fill="white"/>
</svg>
