<?xml version="1.0" encoding="utf-8"?>
<!-- Generator: Adobe Illustrator 24.3.0, SVG Export Plug-In . SVG Version: 6.00 Build 0)  -->
<svg version="1.1" id="Layer_1" xmlns="http://www.w3.org/2000/svg" xmlns:xlink="http://www.w3.org/1999/xlink" x="0px" y="0px"
	 viewBox="0 0 54 54" style="enable-background:new 0 0 54 54;" xml:space="preserve">
<style type="text/css">
	.st0{fill:#FF9100;}
</style>
<path class="st0" d="M22.8,49.7c-1.3,0-2.5-0.6-3.3-1.8l-2.5-3.4c0,0-0.1,0-0.1,0H16c-7.2,0-11.7-2-11.7-11.7v-8.5
	c0-8.9,5.4-11.3,10-11.7c0.5-0.1,1.1-0.1,1.7-0.1h13.6c7.7,0,11.7,4.1,11.7,11.7v8.5c0,0.6,0,1.2-0.1,1.8c-0.4,4.5-2.7,10-11.6,10
	h-0.8l-2.6,3.4C25.3,49.1,24.1,49.7,22.8,49.7z M16,15.7c-0.5,0-1,0-1.4,0.1c-4.9,0.4-7.2,3.1-7.2,8.5v8.5c0,7.3,2.2,8.6,8.6,8.6
	h0.8c1,0,2,0.5,2.6,1.3L22,46c0.5,0.6,1.1,0.6,1.5,0l2.5-3.4c0.6-0.8,1.6-1.3,2.6-1.3h0.8c5.4,0,8.1-2.3,8.5-7.1
	c0.1-0.5,0.1-1,0.1-1.5v-8.5c0-5.9-2.6-8.6-8.6-8.6H16z"/>
<path class="st0" d="M40,34.7c-0.4,0-0.8-0.2-1.1-0.5c-0.3-0.3-0.5-0.8-0.4-1.2c0.1-0.4,0.1-0.9,0.1-1.3v-8.2c0-5.7-2.6-8.3-8.3-8.3
	H17.2c-0.5,0-0.9,0-1.3,0.1c-0.4,0.1-0.9-0.1-1.2-0.4c-0.3-0.3-0.5-0.8-0.5-1.2C14.5,9.3,16.8,4,25.4,4h13.1
	c7.4,0,11.3,3.9,11.3,11.3v8.2c0,8.6-5.3,10.9-9.7,11.2C40,34.7,40,34.7,40,34.7z M17.4,12.2h12.8c7.4,0,11.3,3.9,11.3,11.3v7.9
	c3.5-0.9,5.1-3.4,5.1-7.9v-8.2c0-5.7-2.6-8.3-8.3-8.3H25.3C20.8,7.1,18.3,8.7,17.4,12.2z"/>
<path class="st0" d="M15.1,31.4c-1.7,0-3.1-1.4-3.1-3.1s1.4-3.1,3.1-3.1s3.1,1.4,3.1,3.1S16.8,31.4,15.1,31.4z"/>
<path class="st0" d="M23.1,31.4c-1.7,0-3.1-1.4-3.1-3.1s1.4-3.1,3.1-3.1s3.1,1.4,3.1,3.1S24.8,31.4,23.1,31.4z"/>
<path class="st0" d="M31.1,31.4c-1.7,0-3.1-1.4-3.1-3.1s1.4-3.1,3.1-3.1s3.1,1.4,3.1,3.1S32.8,31.4,31.1,31.4z"/>
</svg>
