<svg width="23" height="23" viewBox="0 0 23 23" fill="none" xmlns="http://www.w3.org/2000/svg">
<path d="M17.7291 12.1229V15.6688C17.7291 18.6588 14.9403 21.0833 11.4999 21.0833C8.0595 21.0833 5.27075 18.6588 5.27075 15.6688V12.1229C5.27075 15.1129 8.0595 17.25 11.4999 17.25C14.9403 17.25 17.7291 15.1129 17.7291 12.1229Z" stroke="#FB3C6A" stroke-width="1.5" stroke-linecap="round" stroke-linejoin="round"/>
<path d="M17.7291 7.33126C17.7291 8.20334 17.4895 9.00834 17.0678 9.69834C16.0424 11.385 13.9341 12.4583 11.4999 12.4583C9.06575 12.4583 6.95742 11.385 5.932 9.69834C5.51034 9.00834 5.27075 8.20334 5.27075 7.33126C5.27075 5.83626 5.97033 4.48501 7.09158 3.50751C8.22241 2.52042 9.77492 1.91667 11.4999 1.91667C13.2249 1.91667 14.7774 2.52042 15.9083 3.49792C17.0295 4.48501 17.7291 5.83626 17.7291 7.33126Z" stroke="#FB3C6A" stroke-width="1.5" stroke-linecap="round" stroke-linejoin="round"/>
<path d="M17.7291 7.33126V12.1229C17.7291 15.1129 14.9403 17.25 11.4999 17.25C8.0595 17.25 5.27075 15.1129 5.27075 12.1229V7.33126C5.27075 4.34126 8.0595 1.91667 11.4999 1.91667C13.2249 1.91667 14.7774 2.52042 15.9083 3.49792C17.0295 4.48501 17.7291 5.83626 17.7291 7.33126Z" stroke="#FB3C6A" stroke-width="1.5" stroke-linecap="round" stroke-linejoin="round"/>
</svg>
