<svg width="183" height="56" viewBox="0 0 183 56" fill="none" xmlns="http://www.w3.org/2000/svg">
<path d="M82.6563 18C82.6146 17.4792 82.4193 17.0729 82.0703 16.7812C81.7266 16.4896 81.2031 16.3437 80.5 16.3437C80.0521 16.3437 79.6849 16.3984 79.3984 16.5078C79.1172 16.612 78.9089 16.7552 78.7734 16.9375C78.638 17.1198 78.5677 17.3281 78.5625 17.5625C78.5521 17.7552 78.5859 17.9297 78.6641 18.0859C78.7474 18.237 78.8776 18.375 79.0547 18.5C79.2318 18.6198 79.4583 18.7292 79.7344 18.8281C80.0104 18.9271 80.3385 19.0156 80.7188 19.0937L82.0313 19.375C82.9167 19.5625 83.6745 19.8099 84.3047 20.1172C84.9349 20.4245 85.4505 20.7865 85.8516 21.2031C86.2526 21.6146 86.5469 22.0781 86.7344 22.5937C86.9271 23.1094 87.026 23.6719 87.0313 24.2812C87.026 25.3333 86.763 26.224 86.2422 26.9531C85.7214 27.6823 84.9766 28.237 84.0078 28.6172C83.0443 28.9974 81.8854 29.1875 80.5313 29.1875C79.1406 29.1875 77.9271 28.9818 76.8906 28.5703C75.8594 28.1589 75.0573 27.526 74.4844 26.6719C73.9167 25.8125 73.6302 24.7135 73.625 23.375H77.75C77.776 23.8646 77.8984 24.276 78.1172 24.6094C78.3359 24.9427 78.6432 25.1953 79.0391 25.3672C79.4401 25.5391 79.9167 25.625 80.4688 25.625C80.9323 25.625 81.3203 25.5677 81.6328 25.4531C81.9453 25.3385 82.1823 25.1797 82.3438 24.9766C82.5052 24.7734 82.5885 24.5417 82.5938 24.2812C82.5885 24.0365 82.5078 23.8229 82.3516 23.6406C82.2005 23.4531 81.9505 23.2865 81.6016 23.1406C81.2526 22.9896 80.7813 22.849 80.1875 22.7187L78.5938 22.375C77.1771 22.0677 76.0599 21.5547 75.2422 20.8359C74.4297 20.112 74.026 19.125 74.0312 17.875C74.026 16.8594 74.2969 15.9714 74.8438 15.2109C75.3958 14.4453 76.1589 13.849 77.1328 13.4219C78.112 12.9948 79.2344 12.7812 80.5 12.7812C81.7917 12.7812 82.9089 12.9974 83.8516 13.4297C84.7943 13.862 85.5208 14.4714 86.0313 15.2578C86.5469 16.0391 86.8073 16.9531 86.8125 18H82.6563ZM88.6836 29V13H100.215V16.5H93.0273V19.25H99.6211V22.75H93.0273V25.5H100.184V29H88.6836ZM106.744 13L110.025 24.2812H110.15L113.432 13H118.338L113.057 29H107.119L101.838 13H106.744ZM119.879 29V13H131.41V16.5H124.223V19.25H130.816V22.75H124.223V25.5H131.379V29H119.879ZM142.189 18C142.148 17.4792 141.952 17.0729 141.604 16.7812C141.26 16.4896 140.736 16.3437 140.033 16.3437C139.585 16.3437 139.218 16.3984 138.932 16.5078C138.65 16.612 138.442 16.7552 138.307 16.9375C138.171 17.1198 138.101 17.3281 138.096 17.5625C138.085 17.7552 138.119 17.9297 138.197 18.0859C138.281 18.237 138.411 18.375 138.588 18.5C138.765 18.6198 138.992 18.7292 139.268 18.8281C139.544 18.9271 139.872 19.0156 140.252 19.0937L141.564 19.375C142.45 19.5625 143.208 19.8099 143.838 20.1172C144.468 20.4245 144.984 20.7865 145.385 21.2031C145.786 21.6146 146.08 22.0781 146.268 22.5937C146.46 23.1094 146.559 23.6719 146.564 24.2812C146.559 25.3333 146.296 26.224 145.775 26.9531C145.255 27.6823 144.51 28.237 143.541 28.6172C142.577 28.9974 141.419 29.1875 140.064 29.1875C138.674 29.1875 137.46 28.9818 136.424 28.5703C135.393 28.1589 134.59 27.526 134.018 26.6719C133.45 25.8125 133.163 24.7135 133.158 23.375H137.283C137.309 23.8646 137.432 24.276 137.65 24.6094C137.869 24.9427 138.176 25.1953 138.572 25.3672C138.973 25.5391 139.45 25.625 140.002 25.625C140.465 25.625 140.854 25.5677 141.166 25.4531C141.479 25.3385 141.715 25.1797 141.877 24.9766C142.038 24.7734 142.122 24.5417 142.127 24.2812C142.122 24.0365 142.041 23.8229 141.885 23.6406C141.734 23.4531 141.484 23.2865 141.135 23.1406C140.786 22.9896 140.314 22.849 139.721 22.7187L138.127 22.375C136.71 22.0677 135.593 21.5547 134.775 20.8359C133.963 20.112 133.559 19.125 133.564 17.875C133.559 16.8594 133.83 15.9714 134.377 15.2109C134.929 14.4453 135.692 13.849 136.666 13.4219C137.645 12.9948 138.768 12.7812 140.033 12.7812C141.325 12.7812 142.442 12.9974 143.385 13.4297C144.327 13.862 145.054 14.4714 145.564 15.2578C146.08 16.0391 146.34 16.9531 146.346 18H142.189ZM148.217 13H153.623L157.342 22.0625H157.529L161.248 13H166.654V29H162.404V19.75H162.279L158.717 28.875H156.154L152.592 19.6875H152.467V29H148.217V13ZM177.338 18C177.296 17.4792 177.101 17.0729 176.752 16.7812C176.408 16.4896 175.885 16.3437 175.182 16.3437C174.734 16.3437 174.367 16.3984 174.08 16.5078C173.799 16.612 173.59 16.7552 173.455 16.9375C173.32 17.1198 173.249 17.3281 173.244 17.5625C173.234 17.7552 173.268 17.9297 173.346 18.0859C173.429 18.237 173.559 18.375 173.736 18.5C173.913 18.6198 174.14 18.7292 174.416 18.8281C174.692 18.9271 175.02 19.0156 175.4 19.0937L176.713 19.375C177.598 19.5625 178.356 19.8099 178.986 20.1172C179.617 20.4245 180.132 20.7865 180.533 21.2031C180.934 21.6146 181.229 22.0781 181.416 22.5937C181.609 23.1094 181.708 23.6719 181.713 24.2812C181.708 25.3333 181.445 26.224 180.924 26.9531C180.403 27.6823 179.658 28.237 178.689 28.6172C177.726 28.9974 176.567 29.1875 175.213 29.1875C173.822 29.1875 172.609 28.9818 171.572 28.5703C170.541 28.1589 169.739 27.526 169.166 26.6719C168.598 25.8125 168.312 24.7135 168.307 23.375H172.432C172.458 23.8646 172.58 24.276 172.799 24.6094C173.018 24.9427 173.325 25.1953 173.721 25.3672C174.122 25.5391 174.598 25.625 175.15 25.625C175.614 25.625 176.002 25.5677 176.314 25.4531C176.627 25.3385 176.864 25.1797 177.025 24.9766C177.187 24.7734 177.27 24.5417 177.275 24.2812C177.27 24.0365 177.189 23.8229 177.033 23.6406C176.882 23.4531 176.632 23.2865 176.283 23.1406C175.934 22.9896 175.463 22.849 174.869 22.7187L173.275 22.375C171.859 22.0677 170.742 21.5547 169.924 20.8359C169.111 20.112 168.708 19.125 168.713 17.875C168.708 16.8594 168.979 15.9714 169.525 15.2109C170.077 14.4453 170.84 13.849 171.814 13.4219C172.794 12.9948 173.916 12.7812 175.182 12.7812C176.473 12.7812 177.59 12.9974 178.533 13.4297C179.476 13.862 180.202 14.4714 180.713 15.2578C181.229 16.0391 181.489 16.9531 181.494 18H177.338Z" fill="#FF9100"/>
<path d="M73.9588 46V37.2727H77.1548C77.7741 37.2727 78.2869 37.375 78.6932 37.5795C79.0994 37.7812 79.4034 38.0554 79.6051 38.402C79.8068 38.7457 79.9077 39.1335 79.9077 39.5653C79.9077 39.929 79.8409 40.2358 79.7074 40.4858C79.5739 40.733 79.3949 40.9318 79.1705 41.0824C78.9489 41.2301 78.7045 41.3381 78.4375 41.4062V41.4915C78.7273 41.5057 79.0099 41.5994 79.2855 41.7727C79.5639 41.9432 79.794 42.1861 79.9759 42.5014C80.1577 42.8168 80.2486 43.2003 80.2486 43.652C80.2486 44.098 80.1435 44.4986 79.9332 44.8537C79.7259 45.206 79.4048 45.4858 78.9702 45.6932C78.5355 45.8977 77.9801 46 77.304 46H73.9588ZM75.2756 44.8707H77.1761C77.8068 44.8707 78.2585 44.7486 78.5312 44.5043C78.804 44.2599 78.9403 43.9545 78.9403 43.5881C78.9403 43.3125 78.8707 43.0597 78.7315 42.8295C78.5923 42.5994 78.3935 42.4162 78.1349 42.2798C77.8793 42.1435 77.5753 42.0753 77.223 42.0753H75.2756V44.8707ZM75.2756 41.0483H77.0398C77.3352 41.0483 77.6009 40.9915 77.8366 40.8778C78.0753 40.7642 78.2642 40.6051 78.4034 40.4006C78.5455 40.1932 78.6165 39.9489 78.6165 39.6676C78.6165 39.3068 78.4901 39.0043 78.2372 38.7599C77.9844 38.5156 77.5966 38.3935 77.0739 38.3935H75.2756V41.0483ZM87.2944 43.2855V39.4545H88.5728V46H87.32V44.8665H87.2518C87.1012 45.2159 86.8597 45.5071 86.5274 45.7401C86.1978 45.9702 85.7873 46.0852 85.2958 46.0852C84.8754 46.0852 84.5032 45.9929 84.1793 45.8082C83.8583 45.6207 83.6055 45.3438 83.4208 44.9773C83.239 44.6108 83.1481 44.1577 83.1481 43.6179V39.4545H84.4222V43.4645C84.4222 43.9105 84.5458 44.2656 84.793 44.5298C85.0401 44.794 85.3612 44.9261 85.7561 44.9261C85.9947 44.9261 86.2319 44.8665 86.4677 44.7472C86.7063 44.6278 86.9038 44.4474 87.06 44.206C87.2191 43.9645 87.2972 43.6577 87.2944 43.2855ZM92.999 37.2727V46H91.7248V37.2727H92.999ZM97.325 43.7798L97.3164 42.2244H97.538L100.146 39.4545H101.672L98.6971 42.608H98.4968L97.325 43.7798ZM96.1531 46V37.2727H97.4272V46H96.1531ZM100.287 46L97.9429 42.8892L98.8207 41.9986L101.851 46H100.287ZM108.991 37.2727H110.589L113.367 44.0568H113.47L116.248 37.2727H117.846V46H116.593V39.6847H116.512L113.938 45.9872H112.899L110.325 39.6804H110.244V46H108.991V37.2727ZM123.919 46.1321C123.274 46.1321 122.719 45.9943 122.253 45.7188C121.79 45.4403 121.432 45.0497 121.179 44.5469C120.929 44.0412 120.804 43.4489 120.804 42.7699C120.804 42.0994 120.929 41.5085 121.179 40.9972C121.432 40.4858 121.784 40.0866 122.236 39.7997C122.69 39.5128 123.222 39.3693 123.83 39.3693C124.199 39.3693 124.557 39.4304 124.903 39.5526C125.25 39.6747 125.561 39.8665 125.837 40.1278C126.112 40.3892 126.33 40.7287 126.489 41.1463C126.648 41.5611 126.727 42.0653 126.727 42.6591V43.1108H121.524V42.1562H125.479C125.479 41.821 125.411 41.5241 125.274 41.2656C125.138 41.0043 124.946 40.7983 124.699 40.6477C124.455 40.4972 124.168 40.4219 123.838 40.4219C123.48 40.4219 123.168 40.5099 122.901 40.6861C122.636 40.8594 122.432 41.0866 122.287 41.3679C122.145 41.6463 122.074 41.9489 122.074 42.2756V43.0213C122.074 43.4588 122.151 43.831 122.304 44.1378C122.46 44.4446 122.678 44.679 122.956 44.8409C123.234 45 123.56 45.0795 123.932 45.0795C124.173 45.0795 124.394 45.0455 124.592 44.9773C124.791 44.9062 124.963 44.8011 125.108 44.6619C125.253 44.5227 125.364 44.3509 125.44 44.1463L126.646 44.3636C126.55 44.7187 126.377 45.0298 126.127 45.2969C125.879 45.5611 125.568 45.767 125.193 45.9148C124.821 46.0597 124.396 46.1321 123.919 46.1321ZM134.486 41.0526L133.331 41.2571C133.283 41.1094 133.206 40.9687 133.101 40.8352C132.999 40.7017 132.859 40.5923 132.683 40.5071C132.507 40.4219 132.287 40.3793 132.023 40.3793C131.662 40.3793 131.361 40.4602 131.119 40.6222C130.878 40.7812 130.757 40.9872 130.757 41.2401C130.757 41.4588 130.838 41.6349 131 41.7685C131.162 41.902 131.423 42.0114 131.784 42.0966L132.824 42.3352C133.426 42.4744 133.875 42.6889 134.171 42.9787C134.466 43.2685 134.614 43.6449 134.614 44.108C134.614 44.5 134.5 44.8494 134.273 45.1562C134.048 45.4602 133.734 45.6989 133.331 45.8722C132.93 46.0455 132.466 46.1321 131.938 46.1321C131.205 46.1321 130.607 45.9759 130.144 45.6634C129.68 45.348 129.396 44.9006 129.291 44.321L130.523 44.1335C130.6 44.4545 130.757 44.6974 130.996 44.8622C131.234 45.0241 131.546 45.1051 131.929 45.1051C132.347 45.1051 132.68 45.0185 132.93 44.8452C133.18 44.669 133.305 44.4545 133.305 44.2017C133.305 43.9972 133.229 43.8253 133.075 43.6861C132.925 43.5469 132.693 43.4418 132.381 43.3707L131.273 43.1278C130.662 42.9886 130.21 42.767 129.918 42.4631C129.628 42.1591 129.483 41.7741 129.483 41.3082C129.483 40.9219 129.591 40.5838 129.807 40.294C130.023 40.0043 130.321 39.7784 130.702 39.6165C131.082 39.4517 131.519 39.3693 132.01 39.3693C132.717 39.3693 133.274 39.5227 133.68 39.8295C134.087 40.1335 134.355 40.5412 134.486 41.0526ZM142.359 41.0526L141.205 41.2571C141.156 41.1094 141.08 40.9687 140.975 40.8352C140.872 40.7017 140.733 40.5923 140.557 40.5071C140.381 40.4219 140.161 40.3793 139.896 40.3793C139.536 40.3793 139.234 40.4602 138.993 40.6222C138.752 40.7812 138.631 40.9872 138.631 41.2401C138.631 41.4588 138.712 41.6349 138.874 41.7685C139.036 41.902 139.297 42.0114 139.658 42.0966L140.698 42.3352C141.3 42.4744 141.749 42.6889 142.044 42.9787C142.34 43.2685 142.487 43.6449 142.487 44.108C142.487 44.5 142.374 44.8494 142.146 45.1562C141.922 45.4602 141.608 45.6989 141.205 45.8722C140.804 46.0455 140.34 46.1321 139.811 46.1321C139.078 46.1321 138.48 45.9759 138.017 45.6634C137.554 45.348 137.27 44.9006 137.165 44.321L138.396 44.1335C138.473 44.4545 138.631 44.6974 138.869 44.8622C139.108 45.0241 139.419 45.1051 139.803 45.1051C140.22 45.1051 140.554 45.0185 140.804 44.8452C141.054 44.669 141.179 44.4545 141.179 44.2017C141.179 43.9972 141.102 43.8253 140.949 43.6861C140.798 43.5469 140.567 43.4418 140.254 43.3707L139.146 43.1278C138.536 42.9886 138.084 42.767 137.791 42.4631C137.502 42.1591 137.357 41.7741 137.357 41.3082C137.357 40.9219 137.465 40.5838 137.681 40.294C137.896 40.0043 138.195 39.7784 138.575 39.6165C138.956 39.4517 139.392 39.3693 139.884 39.3693C140.591 39.3693 141.148 39.5227 141.554 39.8295C141.96 40.1335 142.229 40.5412 142.359 41.0526ZM147.233 46.1449C146.818 46.1449 146.443 46.0682 146.108 45.9148C145.773 45.7585 145.507 45.5327 145.311 45.2372C145.118 44.9418 145.021 44.5795 145.021 44.1506C145.021 43.7812 145.092 43.4773 145.235 43.2386C145.377 43 145.568 42.8111 145.81 42.6719C146.051 42.5327 146.321 42.4276 146.619 42.3565C146.918 42.2855 147.222 42.2315 147.531 42.1946C147.923 42.1491 148.242 42.1122 148.486 42.0838C148.73 42.0526 148.908 42.0028 149.019 41.9347C149.129 41.8665 149.185 41.7557 149.185 41.6023V41.5724C149.185 41.2003 149.08 40.9119 148.869 40.7074C148.662 40.5028 148.352 40.4006 147.94 40.4006C147.511 40.4006 147.173 40.4957 146.926 40.6861C146.682 40.8736 146.513 41.0824 146.419 41.3125L145.222 41.0398C145.364 40.642 145.571 40.321 145.844 40.0767C146.119 39.8295 146.436 39.6506 146.794 39.5398C147.152 39.4261 147.529 39.3693 147.923 39.3693C148.185 39.3693 148.462 39.4006 148.754 39.4631C149.05 39.5227 149.325 39.6335 149.581 39.7955C149.84 39.9574 150.051 40.1889 150.216 40.4901C150.381 40.7884 150.463 41.1761 150.463 41.6534V46H149.219V45.1051H149.168C149.085 45.2699 148.962 45.4318 148.797 45.5909C148.632 45.75 148.421 45.8821 148.162 45.9872C147.904 46.0923 147.594 46.1449 147.233 46.1449ZM147.51 45.1222C147.862 45.1222 148.163 45.0526 148.413 44.9134C148.666 44.7741 148.858 44.5923 148.989 44.3679C149.122 44.1406 149.189 43.8977 149.189 43.6392V42.7955C149.144 42.8409 149.056 42.8835 148.925 42.9233C148.797 42.9602 148.651 42.9929 148.486 43.0213C148.321 43.0469 148.161 43.071 148.004 43.0938C147.848 43.1136 147.717 43.1307 147.612 43.1449C147.365 43.1761 147.139 43.2287 146.935 43.3026C146.733 43.3764 146.571 43.483 146.449 43.6222C146.33 43.7585 146.27 43.9403 146.27 44.1676C146.27 44.483 146.386 44.7216 146.619 44.8835C146.852 45.0426 147.149 45.1222 147.51 45.1222ZM156.345 48.5909C155.825 48.5909 155.377 48.5227 155.002 48.3864C154.63 48.25 154.326 48.0696 154.09 47.8452C153.855 47.6207 153.678 47.375 153.562 47.108L154.657 46.6562C154.734 46.7812 154.836 46.9134 154.964 47.0526C155.095 47.1946 155.271 47.3153 155.492 47.4148C155.717 47.5142 156.005 47.5639 156.357 47.5639C156.84 47.5639 157.239 47.446 157.555 47.2102C157.87 46.9773 158.028 46.6051 158.028 46.0938V44.8068H157.947C157.87 44.946 157.759 45.1009 157.614 45.2713C157.472 45.4418 157.276 45.5895 157.026 45.7145C156.776 45.8395 156.451 45.902 156.051 45.902C155.534 45.902 155.068 45.7812 154.653 45.5398C154.241 45.2955 153.914 44.9361 153.673 44.4616C153.434 43.9844 153.315 43.3977 153.315 42.7017C153.315 42.0057 153.433 41.4091 153.668 40.9119C153.907 40.4148 154.234 40.0341 154.649 39.7699C155.063 39.5028 155.534 39.3693 156.059 39.3693C156.465 39.3693 156.793 39.4375 157.043 39.5739C157.293 39.7074 157.488 39.8636 157.627 40.0426C157.769 40.2216 157.879 40.3793 157.955 40.5156H158.049V39.4545H159.298V46.1449C159.298 46.7074 159.167 47.169 158.906 47.5298C158.644 47.8906 158.291 48.1577 157.845 48.331C157.401 48.5043 156.901 48.5909 156.345 48.5909ZM156.332 44.8452C156.698 44.8452 157.008 44.7599 157.261 44.5895C157.516 44.4162 157.71 44.169 157.84 43.848C157.974 43.5241 158.041 43.1364 158.041 42.6847C158.041 42.2443 157.975 41.8565 157.845 41.5213C157.714 41.1861 157.522 40.9247 157.269 40.7372C157.016 40.5469 156.704 40.4517 156.332 40.4517C155.948 40.4517 155.629 40.5511 155.373 40.75C155.117 40.946 154.924 41.2131 154.793 41.5511C154.666 41.8892 154.602 42.267 154.602 42.6847C154.602 43.1136 154.667 43.4901 154.798 43.8139C154.928 44.1378 155.122 44.3906 155.377 44.5724C155.636 44.7543 155.954 44.8452 156.332 44.8452ZM162.447 46V39.4545H163.721V46H162.447ZM163.09 38.4446C162.868 38.4446 162.678 38.3707 162.519 38.223C162.363 38.0724 162.285 37.8935 162.285 37.6861C162.285 37.4759 162.363 37.2969 162.519 37.1491C162.678 36.9986 162.868 36.9233 163.09 36.9233C163.312 36.9233 163.501 36.9986 163.657 37.1491C163.816 37.2969 163.895 37.4759 163.895 37.6861C163.895 37.8935 163.816 38.0724 163.657 38.223C163.501 38.3707 163.312 38.4446 163.09 38.4446ZM168.149 42.1136V46H166.875V39.4545H168.098V40.5199H168.179C168.329 40.1733 168.565 39.8949 168.886 39.6847C169.21 39.4744 169.618 39.3693 170.109 39.3693C170.555 39.3693 170.946 39.4631 171.281 39.6506C171.616 39.8352 171.876 40.1108 172.061 40.4773C172.246 40.8437 172.338 41.2969 172.338 41.8366V46H171.064V41.9901C171.064 41.5156 170.94 41.1449 170.693 40.8778C170.446 40.608 170.106 40.473 169.675 40.473C169.379 40.473 169.116 40.5369 168.886 40.6648C168.659 40.7926 168.479 40.9801 168.345 41.2273C168.214 41.4716 168.149 41.767 168.149 42.1136ZM178.231 48.5909C177.711 48.5909 177.264 48.5227 176.889 48.3864C176.517 48.25 176.213 48.0696 175.977 47.8452C175.741 47.6207 175.565 47.375 175.448 47.108L176.544 46.6562C176.62 46.7812 176.722 46.9134 176.85 47.0526C176.981 47.1946 177.157 47.3153 177.379 47.4148C177.603 47.5142 177.892 47.5639 178.244 47.5639C178.727 47.5639 179.126 47.446 179.441 47.2102C179.757 46.9773 179.914 46.6051 179.914 46.0938V44.8068H179.833C179.757 44.946 179.646 45.1009 179.501 45.2713C179.359 45.4418 179.163 45.5895 178.913 45.7145C178.663 45.8395 178.338 45.902 177.937 45.902C177.42 45.902 176.954 45.7812 176.539 45.5398C176.127 45.2955 175.801 44.9361 175.559 44.4616C175.32 43.9844 175.201 43.3977 175.201 42.7017C175.201 42.0057 175.319 41.4091 175.555 40.9119C175.794 40.4148 176.12 40.0341 176.535 39.7699C176.95 39.5028 177.42 39.3693 177.945 39.3693C178.352 39.3693 178.68 39.4375 178.93 39.5739C179.18 39.7074 179.374 39.8636 179.514 40.0426C179.656 40.2216 179.765 40.3793 179.842 40.5156H179.936V39.4545H181.184V46.1449C181.184 46.7074 181.053 47.169 180.792 47.5298C180.531 47.8906 180.177 48.1577 179.731 48.331C179.288 48.5043 178.788 48.5909 178.231 48.5909ZM178.218 44.8452C178.585 44.8452 178.894 44.7599 179.147 44.5895C179.403 44.4162 179.596 44.169 179.727 43.848C179.86 43.5241 179.927 43.1364 179.927 42.6847C179.927 42.2443 179.862 41.8565 179.731 41.5213C179.6 41.1861 179.409 40.9247 179.156 40.7372C178.903 40.5469 178.59 40.4517 178.218 40.4517C177.835 40.4517 177.515 40.5511 177.259 40.75C177.004 40.946 176.811 41.2131 176.68 41.5511C176.552 41.8892 176.488 42.267 176.488 42.6847C176.488 43.1136 176.553 43.4901 176.684 43.8139C176.815 44.1378 177.008 44.3906 177.264 44.5724C177.522 44.7543 177.84 44.8452 178.218 44.8452Z" fill="#858585"/>
<circle cx="28" cy="28" r="28" fill="#CDCDCD"/>
<path d="M15.135 26V12.9091H18.689V23.1364H23.9816V26H15.135ZM40.5603 19.4545C40.5603 20.9119 40.2769 22.1413 39.7101 23.1428C39.1434 24.1399 38.3785 24.8963 37.4154 25.4119C36.4523 25.9233 35.3785 26.179 34.1938 26.179C33.0006 26.179 31.9225 25.9212 30.9594 25.4055C30.0006 24.8857 29.2378 24.1271 28.6711 23.13C28.1086 22.1286 27.8273 20.9034 27.8273 19.4545C27.8273 17.9972 28.1086 16.7699 28.6711 15.7727C29.2378 14.7713 30.0006 14.0149 30.9594 13.5036C31.9225 12.9879 33.0006 12.7301 34.1938 12.7301C35.3785 12.7301 36.4523 12.9879 37.4154 13.5036C38.3785 14.0149 39.1434 14.7713 39.7101 15.7727C40.2769 16.7699 40.5603 17.9972 40.5603 19.4545ZM36.904 19.4545C36.904 18.6705 36.7996 18.0099 36.5908 17.473C36.3863 16.9318 36.0816 16.5227 35.6768 16.2457C35.2762 15.9645 34.7819 15.8239 34.1938 15.8239C33.6057 15.8239 33.1093 15.9645 32.7045 16.2457C32.3039 16.5227 31.9992 16.9318 31.7904 17.473C31.5859 18.0099 31.4836 18.6705 31.4836 19.4545C31.4836 20.2386 31.5859 20.9013 31.7904 21.4425C31.9992 21.9794 32.3039 22.3885 32.7045 22.6697C33.1093 22.9467 33.6057 23.0852 34.1938 23.0852C34.7819 23.0852 35.2762 22.9467 35.6768 22.6697C36.0816 22.3885 36.3863 21.9794 36.5908 21.4425C36.7996 20.9013 36.904 20.2386 36.904 19.4545ZM21.571 35.2301C21.5156 35.0043 21.4283 34.8061 21.3089 34.6357C21.1896 34.4609 21.0405 34.3139 20.8615 34.1946C20.6868 34.071 20.4822 33.9794 20.2479 33.9197C20.0178 33.8558 19.7642 33.8239 19.4872 33.8239C18.8906 33.8239 18.3814 33.9666 17.9595 34.2521C17.5419 34.5376 17.2223 34.9489 17.0007 35.4858C16.7834 36.0227 16.6747 36.6705 16.6747 37.429C16.6747 38.196 16.7791 38.8523 16.9879 39.3977C17.1967 39.9432 17.5078 40.3608 17.9212 40.6506C18.3345 40.9403 18.848 41.0852 19.4616 41.0852C20.0028 41.0852 20.4524 41.0064 20.8104 40.8487C21.1726 40.6911 21.4432 40.4673 21.6222 40.1776C21.8011 39.8878 21.8906 39.5469 21.8906 39.1548L22.5043 39.2188H19.5128V36.6875H25.3168V38.5028C25.3168 39.696 25.0632 40.7166 24.5561 41.5646C24.0533 42.4084 23.3587 43.0561 22.4723 43.5078C21.5902 43.9553 20.5781 44.179 19.4361 44.179C18.1619 44.179 17.0433 43.9084 16.0803 43.3672C15.1172 42.826 14.3651 42.0547 13.8239 41.0533C13.2869 40.0518 13.0185 38.8608 13.0185 37.4801C13.0185 36.3977 13.1825 35.4389 13.5107 34.6037C13.843 33.7685 14.3033 33.0632 14.8913 32.4879C15.4794 31.9084 16.1591 31.4716 16.9304 31.1776C17.7017 30.8793 18.5284 30.7301 19.4105 30.7301C20.1861 30.7301 20.9063 30.8409 21.571 31.0625C22.2401 31.2798 22.8303 31.5909 23.3416 31.9957C23.8572 32.3963 24.2727 32.8714 24.5881 33.4212C24.9034 33.9709 25.0952 34.5739 25.1634 35.2301H21.571ZM42.6257 37.4545C42.6257 38.9119 42.3423 40.1413 41.7756 41.1428C41.2088 42.1399 40.4439 42.8963 39.4808 43.4119C38.5178 43.9233 37.4439 44.179 36.2592 44.179C35.0661 44.179 33.9879 43.9212 33.0249 43.4055C32.0661 42.8857 31.3033 42.1271 30.7365 41.13C30.174 40.1286 29.8928 38.9034 29.8928 37.4545C29.8928 35.9972 30.174 34.7699 30.7365 33.7727C31.3033 32.7713 32.0661 32.0149 33.0249 31.5036C33.9879 30.9879 35.0661 30.7301 36.2592 30.7301C37.4439 30.7301 38.5178 30.9879 39.4808 31.5036C40.4439 32.0149 41.2088 32.7713 41.7756 33.7727C42.3423 34.7699 42.6257 35.9972 42.6257 37.4545ZM38.9695 37.4545C38.9695 36.6705 38.8651 36.0099 38.6563 35.473C38.4517 34.9318 38.147 34.5227 37.7422 34.2457C37.3416 33.9645 36.8473 33.8239 36.2592 33.8239C35.6712 33.8239 35.1747 33.9645 34.7699 34.2457C34.3693 34.5227 34.0646 34.9318 33.8558 35.473C33.6513 36.0099 33.549 36.6705 33.549 37.4545C33.549 38.2386 33.6513 38.9013 33.8558 39.4425C34.0646 39.9794 34.3693 40.3885 34.7699 40.6697C35.1747 40.9467 35.6712 41.0852 36.2592 41.0852C36.8473 41.0852 37.3416 40.9467 37.7422 40.6697C38.147 40.3885 38.4517 39.9794 38.6563 39.4425C38.8651 38.9013 38.9695 38.2386 38.9695 37.4545Z" fill="white"/>
</svg>
