<?xml version="1.0" encoding="utf-8"?>
<!-- Generator: Adobe Illustrator 24.3.0, SVG Export Plug-In . SVG Version: 6.00 Build 0)  -->
<svg version="1.1" id="Layer_1" xmlns="http://www.w3.org/2000/svg" xmlns:xlink="http://www.w3.org/1999/xlink" x="0px" y="0px"
	 viewBox="0 0 15 16" style="enable-background:new 0 0 15 16;" xml:space="preserve">
<path d="M0.6,6.6c0-2.7,2.2-4.9,4.9-4.9h6c0.4,0,0.6,0.3,0.6,0.6c0,0.4-0.3,0.6-0.6,0.6h-6c-2,0-3.7,1.6-3.7,3.7v6.1
	c0,0.4-0.3,0.6-0.6,0.6c-0.4,0-0.6-0.3-0.6-0.6V6.6z"/>
<path d="M11.7,4.5c-2.1-0.2-4.3-0.2-6.5,0C4.6,4.6,4.1,5.1,4.1,5.7c-0.3,2.2-0.3,4.4,0,6.5c0.1,0.6,0.6,1.1,1.2,1.2
	c2.1,0.2,4.3,0.2,6.5,0c0.6-0.1,1.1-0.5,1.2-1.2c0.3-2.2,0.3-4.4,0-6.5C12.8,5.1,12.3,4.6,11.7,4.5z"/>
</svg>
