<svg width="25" height="25" viewBox="0 0 25 25" fill="none" xmlns="http://www.w3.org/2000/svg">
<g filter="url(#filter0_dd_4_232)">
<path d="M11.5781 2.27349V5.30473C11.5781 5.90768 11.3386 6.48594 10.9122 6.91229C10.4859 7.33864 9.90763 7.57817 9.30468 7.57817H6.27343C5.67048 7.57817 5.09222 7.33864 4.66587 6.91229C4.23952 6.48594 4 5.90768 4 5.30473V2.27349C4 1.67054 4.23952 1.09228 4.66587 0.66593C5.09222 0.239579 5.67048 5.75411e-05 6.27343 5.75411e-05H9.30468C9.90763 5.75411e-05 10.4859 0.239579 10.9122 0.66593C11.3386 1.09228 11.5781 1.67054 11.5781 2.27349ZM18.7267 0H15.6955C15.0925 0 14.5143 0.239522 14.0879 0.665873C13.6616 1.09222 13.4221 1.67048 13.4221 2.27343V5.30468C13.4221 5.90763 13.6616 6.48588 14.0879 6.91223C14.5143 7.33859 15.0925 7.57811 15.6955 7.57811H18.7267C19.3297 7.57811 19.9079 7.33859 20.3343 6.91223C20.7606 6.48588 21.0002 5.90763 21.0002 5.30468V2.27343C21.0002 1.67048 20.7606 1.09222 20.3343 0.665873C19.9079 0.239522 19.3297 0 18.7267 0ZM9.30493 9.42175H6.27368C5.67073 9.42175 5.09248 9.66127 4.66612 10.0876C4.23977 10.514 4.00025 11.0922 4.00025 11.6952V14.7264C4.00025 15.3294 4.23977 15.9076 4.66612 16.334C5.09248 16.7603 5.67073 16.9999 6.27368 16.9999H9.30493C9.90788 16.9999 10.4861 16.7603 10.9125 16.334C11.3388 15.9076 11.5784 15.3294 11.5784 14.7264V11.6952C11.5784 11.0922 11.3388 10.514 10.9125 10.0876C10.4861 9.66127 9.90788 9.42175 9.30493 9.42175ZM18.7267 9.42189H15.6955C15.0925 9.42189 14.5143 9.66141 14.0879 10.0878C13.6616 10.5141 13.4221 11.0924 13.4221 11.6953V14.7266C13.4221 15.3295 13.6616 15.9078 14.0879 16.3341C14.5143 16.7605 15.0925 17 15.6955 17H18.7267C19.3297 17 19.9079 16.7605 20.3343 16.3341C20.7607 15.9078 21.0002 15.3295 21.0002 14.7266V11.6953C21.0002 11.0924 20.7607 10.5141 20.3343 10.0878C19.9079 9.66141 19.3297 9.42189 18.7267 9.42189Z" fill="white"/>
</g>
<defs>
<filter id="filter0_dd_4_232" x="0" y="0" width="25.0002" height="25" filterUnits="userSpaceOnUse" color-interpolation-filters="sRGB">
<feFlood flood-opacity="0" result="BackgroundImageFix"/>
<feColorMatrix in="SourceAlpha" type="matrix" values="0 0 0 0 0 0 0 0 0 0 0 0 0 0 0 0 0 0 127 0" result="hardAlpha"/>
<feOffset dy="4"/>
<feGaussianBlur stdDeviation="2"/>
<feComposite in2="hardAlpha" operator="out"/>
<feColorMatrix type="matrix" values="0 0 0 0 0 0 0 0 0 0 0 0 0 0 0 0 0 0 0.25 0"/>
<feBlend mode="normal" in2="BackgroundImageFix" result="effect1_dropShadow_4_232"/>
<feColorMatrix in="SourceAlpha" type="matrix" values="0 0 0 0 0 0 0 0 0 0 0 0 0 0 0 0 0 0 127 0" result="hardAlpha"/>
<feOffset dy="4"/>
<feGaussianBlur stdDeviation="2"/>
<feComposite in2="hardAlpha" operator="out"/>
<feColorMatrix type="matrix" values="0 0 0 0 0 0 0 0 0 0 0 0 0 0 0 0 0 0 0.25 0"/>
<feBlend mode="normal" in2="effect1_dropShadow_4_232" result="effect2_dropShadow_4_232"/>
<feBlend mode="normal" in="SourceGraphic" in2="effect2_dropShadow_4_232" result="shape"/>
</filter>
</defs>
</svg>
