<svg width="49" height="40" viewBox="0 0 49 40" fill="none" xmlns="http://www.w3.org/2000/svg">
<g filter="url(#filter0_b_4_7755)">
<path d="M37.7302 29.8901C32.0951 29.8901 27.4401 25.2351 27.4401 19.6001C27.4401 13.9651 32.0951 9.31004 37.7302 9.31004H44.8352C44.3452 4.16502 39.9352 0 34.5451 0H10.045C4.65502 0 0 4.41002 0 10.045V29.1551C0 34.7901 4.65502 39.2002 10.29 39.2002H34.7901C40.1802 39.2002 44.5902 35.0351 45.0802 29.8901H37.7302Z" fill="white" fill-opacity="0.3"/>
<path d="M45.5699 14.21H37.7299C34.7899 14.21 32.3398 16.66 32.3398 19.6C32.3398 22.54 34.7899 24.99 37.7299 24.99H45.5699C47.5299 24.99 48.9999 23.52 48.9999 21.56V17.64C48.9999 15.68 47.5299 14.21 45.5699 14.21Z" fill="white" fill-opacity="0.3"/>
</g>
<defs>
<filter id="filter0_b_4_7755" x="-1" y="-1" width="51" height="41.2002" filterUnits="userSpaceOnUse" color-interpolation-filters="sRGB">
<feFlood flood-opacity="0" result="BackgroundImageFix"/>
<feGaussianBlur in="BackgroundImageFix" stdDeviation="0.5"/>
<feComposite in2="SourceAlpha" operator="in" result="effect1_backgroundBlur_4_7755"/>
<feBlend mode="normal" in="SourceGraphic" in2="effect1_backgroundBlur_4_7755" result="shape"/>
</filter>
</defs>
</svg>
