<svg width="1279" height="229" viewBox="0 0 1279 229" fill="none" xmlns="http://www.w3.org/2000/svg">
<rect width="1280" height="229" fill="#FBFBFB"/>
<path opacity="0.5" d="M299.618 144.671C220.768 144.862 102.031 147.236 99.0568 144.671C97.4471 143.307 130.378 135.668 155.943 134.467C137.608 113.486 144.238 101.564 168.548 111.658C148.467 71.1697 186.337 65.1128 194.576 66.095C201.124 66.8862 245.378 75.7533 216.812 114.632C241.804 106.256 246.279 119.107 231.955 132.176C243.277 130.32 248.516 130.211 250.426 136.186C264.94 136.486 304.883 142.489 299.618 144.671Z" fill="#E0ECF8"/>
<path d="M260.193 80.7462L186.255 100.881C185.573 101.072 185.136 101.754 185.273 102.437L194.74 152.993C194.876 153.757 195.613 154.248 196.377 154.057L271.625 137.059C272.334 136.896 272.798 136.186 272.662 135.477L261.912 81.783C261.721 81.019 260.93 80.5552 260.193 80.7462Z" fill="#FECE2F"/>
<path fill-rule="evenodd" clip-rule="evenodd" d="M194.713 152.911L220.005 124.563C212.802 121.262 203.771 116.106 196.159 111.358C192.175 108.875 188.574 106.502 185.818 104.565C185.764 104.51 185.709 104.483 185.627 104.428L185.245 102.409C185.218 102.327 185.218 102.218 185.218 102.136C185.682 102.464 186.2 102.846 186.746 103.228C189.474 105.138 193.049 107.484 197.005 109.967C204.944 114.905 214.411 120.307 221.669 123.527C223.988 124.564 226.089 125.355 227.78 125.846L231.655 120.553L260.766 80.7189C261.285 80.8281 261.748 81.21 261.857 81.783L261.885 81.9467L233.592 120.662L272.525 135.177L272.58 135.477C272.689 135.968 272.498 136.459 272.143 136.787L232.582 122.053L228.763 127.292L228.435 127.728L227.89 127.592C226.089 127.128 223.933 126.31 221.532 125.273L195.859 154.084C195.313 154.002 194.849 153.566 194.74 152.993L194.713 152.911Z" fill="#893224"/>
<path d="M987.216 62.2074L949.664 55.0142C949.332 54.9404 948.963 55.1618 948.89 55.4938L942.028 80.2456C941.918 80.6144 942.139 80.9833 942.545 81.094L979.986 89.984C980.355 90.0577 980.687 89.8733 980.798 89.5044L987.733 63.0927C987.843 62.6869 987.585 62.2811 987.216 62.2074Z" fill="#FECE2F"/>
<path fill-rule="evenodd" clip-rule="evenodd" d="M942.028 80.2087L959.587 73.0525C957.079 69.9908 954.165 65.7118 951.804 61.9123C950.55 59.9204 949.48 58.076 948.668 56.6005C948.631 56.5636 948.631 56.5267 948.631 56.4898L948.89 55.4938C948.89 55.4569 948.927 55.42 948.927 55.3831C949.074 55.6414 949.222 55.8996 949.369 56.1947C950.181 57.6333 951.25 59.4777 952.505 61.4697C954.976 65.4167 958.038 69.917 960.583 72.9418C961.395 73.9378 962.169 74.7124 962.833 75.3395L965.711 73.8271L987.511 62.355C987.733 62.5025 987.843 62.7976 987.769 63.0927L987.733 63.1665L966.559 74.3067L980.835 89.3569L980.798 89.5045C980.724 89.7627 980.539 89.9471 980.318 89.984L965.821 74.7124L962.944 76.2248L962.686 76.3355L962.464 76.1511C961.764 75.5609 960.952 74.7124 960.104 73.7165L942.25 80.9834C942.065 80.8358 941.955 80.5407 942.028 80.2087Z" fill="#893224"/>
<path opacity="0.5" d="M1209.09 175.897C1201.45 183.127 970 177.397 970 171.777C970 169.703 1001.87 165.747 1005.55 163.756C1008.31 162.255 985.142 156.198 993.055 149.077C988.907 138.764 990.926 134.862 1005.33 132.68C1004.3 74.8932 1075.72 63.9798 1073.79 132.68C1091.9 125.231 1106.36 129.351 1101.07 149.868C1126.53 146.649 1116.79 164.329 1128.82 164.329C1150.62 164.329 1213.45 171.777 1209.09 175.897Z" fill="#E0ECF8"/>
<path d="M1132.06 98.9573L1048.9 83.0238C1048.14 82.8873 1047.38 83.3512 1047.19 84.0878L1032.02 138.873C1031.8 139.692 1032.29 140.537 1033.11 140.728L1116.05 160.4C1116.84 160.591 1117.63 160.1 1117.85 159.336L1133.24 100.84C1133.46 99.9668 1132.91 99.121 1132.06 98.9573Z" fill="#FECE2F"/>
<path fill-rule="evenodd" clip-rule="evenodd" d="M1032.02 138.818L1070.89 122.967C1065.36 116.2 1058.89 106.679 1053.62 98.2752C1050.87 93.8826 1048.44 89.7628 1046.67 86.516C1046.64 86.4342 1046.58 86.3796 1046.56 86.2977L1047.16 84.1151C1047.19 84.0332 1047.21 83.9241 1047.27 83.8422C1047.57 84.4152 1047.89 85.0154 1048.25 85.643C1050.02 88.8624 1052.42 92.9276 1055.15 97.3203C1060.64 106.078 1067.43 116.037 1073.05 122.749C1074.85 124.904 1076.54 126.705 1077.99 128.014L1084.4 124.631L1132.64 99.2028C1133.13 99.5575 1133.35 100.185 1133.18 100.785L1133.13 100.949L1086.26 125.641L1117.88 158.954L1117.79 159.281C1117.66 159.827 1117.22 160.209 1116.73 160.345L1084.62 126.514L1078.26 129.869L1077.72 130.142L1077.25 129.733C1075.7 128.396 1073.92 126.541 1072.07 124.358L1032.56 140.483C1032.04 140.128 1031.8 139.473 1031.96 138.846L1032.02 138.818Z" fill="#893224"/>
</svg>
