<?xml version="1.0" encoding="utf-8"?>
<!-- Generator: Adobe Illustrator 24.3.0, SVG Export Plug-In . SVG Version: 6.00 Build 0)  -->
<svg version="1.1" id="Layer_1" xmlns="http://www.w3.org/2000/svg" xmlns:xlink="http://www.w3.org/1999/xlink" x="0px" y="0px"
	 viewBox="0 0 20 21" style="enable-background:new 0 0 20 21;" xml:space="preserve">
<style type="text/css">
	.st0{opacity:0.5;}
	.st1{fill:#FFFFFF;}
</style>
<g class="st0">
	<path class="st1" d="M10,4.4L10,4.4c0.2,0,0.3,0,0.4,0.1c0.3,0.1,0.5,0.4,0.5,0.7c0,0.2,0,0.4,0,0.6c0.7,0.2,1.3,0.5,1.7,1
		c0.6,0.6,0.9,1.5,1,2.3c0,0.4,0,0.8,0,1.2c0,0.8,0,1.7,0,2.5c0,0.1,0.1,0.1,0.2,0.2c0.4,0.4,0.7,0.7,1.1,1.1c0,0.2,0,0.4,0,0.6
		c-3.3,0-6.7,0-10,0c0-0.2,0-0.4,0-0.6c0.4-0.4,0.8-0.8,1.3-1.3c0-1,0-2,0-3c0-0.3,0-0.7,0.1-1c0.1-0.8,0.5-1.5,1-2.1
		c0.5-0.5,1.1-0.8,1.7-1c0-0.2,0-0.3,0-0.5c0-0.2,0.1-0.5,0.3-0.6C9.5,4.5,9.8,4.4,10,4.4z"/>
	<path class="st1" d="M8.8,15.3c0.8,0,1.7,0,2.5,0c0,0.4-0.2,0.7-0.4,0.9c-0.2,0.2-0.5,0.3-0.8,0.3H10c-0.3,0-0.7-0.2-0.9-0.4
		C8.9,15.9,8.8,15.6,8.8,15.3z"/>
</g>
</svg>
