<?xml version="1.0" encoding="utf-8"?>
<!-- Generator: Adobe Illustrator 24.3.0, SVG Export Plug-In . SVG Version: 6.00 Build 0)  -->
<svg version="1.1" id="Layer_1" xmlns="http://www.w3.org/2000/svg" xmlns:xlink="http://www.w3.org/1999/xlink" x="0px" y="0px"
	 viewBox="0 0 20 21" style="enable-background:new 0 0 20 21;" xml:space="preserve">
<style type="text/css">
	.st0{opacity:0.5;}
	.st1{fill:#FFFFFF;}
</style>
<g class="st0">
	<path class="st1" d="M7.6,5.8C10,5,12.3,4.2,14.8,3.4c0.2-0.1,0.5,0,0.5,0.2c0.2,0.7,0.5,1.5,0.7,2.2C13.1,5.8,10.3,5.8,7.6,5.8z"
		/>
	<path class="st1" d="M2,6.8c0.1-0.2,0.2-0.2,0.4-0.2c4.3,0,8.6,0,12.9,0c0,1,0,2.1,0,3.1c-0.5,0-1-0.1-1.5,0.1
		c-0.6,0.2-1.2,0.6-1.5,1.3c-0.3,0.6-0.3,1.4,0,2c0.3,0.6,0.9,1.1,1.5,1.3c0.5,0.2,0.9,0.1,1.4,0.1c0,1,0,2.1,0,3.1
		c-4.4,0-8.6,0-13,0c-0.2,0-0.4-0.2-0.4-0.3s0-0.3,0-0.5c0-3.2,0-6.5,0-9.6C1.9,7.1,1.9,7,2,6.8z"/>
	<path class="st1" d="M16.1,6.6c0.2,0,0.6,0,0.8,0s0.4,0.2,0.4,0.4c0,0.9,0,1.9,0,2.7c-0.4,0-0.8,0-1.2,0
		C16.1,8.7,16.1,7.7,16.1,6.6z"/>
	<g>
		<path class="st1" d="M14.2,10.6c0.2-0.1,0.5-0.1,0.7-0.1c0.9,0,1.9,0,2.7,0c0.2,0,0.5,0.2,0.4,0.4c0,0.8,0,1.5,0,2.3
			c0,0.2-0.2,0.4-0.4,0.4c-1,0-2.1,0-3.1,0c-0.8,0-1.5-0.6-1.5-1.5C12.9,11.6,13.4,10.7,14.2,10.6z M14.4,11.7
			c-0.2,0.1-0.4,0.5-0.2,0.6c0.2,0.2,0.6,0.1,0.6-0.2C15,12,14.7,11.6,14.4,11.7z"/>
	</g>
	<path class="st1" d="M16.1,14.5c0.4,0,0.8,0,1.2,0c0,0.9,0,1.9,0,2.7c0,0.2-0.2,0.4-0.4,0.4s-0.6,0-0.8,0
		C16.1,16.6,16.1,15.5,16.1,14.5z"/>
</g>
</svg>
