<?xml version="1.0" encoding="utf-8"?>
<!-- Generator: Adobe Illustrator 24.3.0, SVG Export Plug-In . SVG Version: 6.00 Build 0)  -->
<svg version="1.1" id="Layer_1" xmlns="http://www.w3.org/2000/svg" xmlns:xlink="http://www.w3.org/1999/xlink" x="0px" y="0px"
	 viewBox="0 0 20 21" style="enable-background:new 0 0 20 21;" xml:space="preserve">
<style type="text/css">
	.st0{opacity:0.5;}
	.st1{fill:#FFFFFF;}
</style>
<g class="st0">
	<path class="st1" d="M7.8,6.2C10,5.5,12.1,4.8,14.4,4c0.2-0.1,0.5,0,0.5,0.2c0.2,0.6,0.5,1.4,0.6,2C12.8,6.2,10.3,6.2,7.8,6.2z"/>
	<path class="st1" d="M2.7,7.1c0.1-0.2,0.2-0.2,0.4-0.2c3.9,0,7.8,0,11.8,0c0,0.9,0,1.9,0,2.8c-0.5,0-0.9-0.1-1.4,0.1
		c-0.5,0.2-1.1,0.5-1.4,1.2c-0.3,0.5-0.3,1.3,0,1.8s0.8,1,1.4,1.2c0.5,0.2,0.8,0.1,1.3,0.1c0,0.9,0,1.9,0,2.8c-4,0-7.8,0-11.8,0
		c-0.2,0-0.4-0.2-0.4-0.3s0-0.3,0-0.5c0-2.9,0-5.9,0-8.7C2.6,7.4,2.6,7.3,2.7,7.1z"/>
	<path class="st1" d="M15.6,6.9c0.2,0,0.5,0,0.7,0c0.2,0,0.4,0.2,0.4,0.4c0,0.8,0,1.7,0,2.5c-0.4,0-0.7,0-1.1,0
		C15.6,8.9,15.6,7.9,15.6,6.9z"/>
	<g>
		<path class="st1" d="M13.8,10.6c0.2-0.1,0.5-0.1,0.6-0.1c0.8,0,1.7,0,2.5,0c0.2,0,0.5,0.2,0.4,0.4c0,0.7,0,1.4,0,2.1
			c0,0.2-0.2,0.4-0.4,0.4c-0.9,0-1.9,0-2.8,0c-0.7,0-1.4-0.5-1.4-1.4C12.6,11.5,13.1,10.7,13.8,10.6z M14,11.6
			c-0.2,0.1-0.4,0.5-0.2,0.5c0.2,0.2,0.5,0.1,0.5-0.2C14.5,11.9,14.3,11.5,14,11.6z"/>
	</g>
	<path class="st1" d="M15.6,14.1c0.4,0,0.7,0,1.1,0c0,0.8,0,1.7,0,2.5c0,0.2-0.2,0.4-0.4,0.4c-0.2,0-0.5,0-0.7,0
		C15.6,16.1,15.6,15.1,15.6,14.1z"/>
</g>
</svg>
