<?xml version="1.0" encoding="utf-8"?>
<!-- Generator: Adobe Illustrator 24.3.0, SVG Export Plug-In . SVG Version: 6.00 Build 0)  -->
<svg version="1.1" id="Layer_1" xmlns="http://www.w3.org/2000/svg" xmlns:xlink="http://www.w3.org/1999/xlink" x="0px" y="0px"
	 viewBox="0 0 20 17.8" style="enable-background:new 0 0 20 17.8;" xml:space="preserve">
<style type="text/css">
	.st0{fill:#FFFFFF;}
</style>
<g>
	<path class="st0" d="M7,3.1c3-1,5.9-1.9,9-3c0.3-0.1,0.7,0,0.7,0.3c0.3,0.8,0.7,1.9,0.8,2.7C13.8,3.1,10.4,3.1,7,3.1z"/>
	<path class="st0" d="M0.1,4.3C0.2,4,0.3,4,0.6,4c5.3,0,10.6,0,16.1,0c0,1.2,0,2.6,0,3.8c-0.7,0-1.2-0.1-1.9,0.1
		c-0.7,0.3-1.5,0.7-1.9,1.6c-0.4,0.7-0.4,1.8,0,2.5s1.1,1.4,1.9,1.6c0.7,0.3,1.1,0.1,1.8,0.1c0,1.2,0,2.6,0,3.8
		c-5.5,0-10.6,0-16.1,0c-0.3,0-0.5-0.3-0.5-0.4s0-0.4,0-0.7c0-4,0-8,0-11.9C-0.1,4.7-0.1,4.6,0.1,4.3z"/>
	<path class="st0" d="M17.7,4c0.3,0,0.7,0,1,0s0.5,0.3,0.5,0.5c0,1.1,0,2.3,0,3.4c-0.5,0-1,0-1.5,0C17.7,6.7,17.7,5.4,17.7,4z"/>
	<g>
		<path class="st0" d="M15.2,9.1C15.5,9,15.9,9,16,9c1.1,0,2.3,0,3.4,0c0.3,0,0.7,0.3,0.5,0.5c0,1,0,1.9,0,2.9
			c0,0.3-0.3,0.5-0.5,0.5c-1.2,0-2.6,0-3.8,0c-1,0-1.9-0.7-1.9-1.9C13.6,10.3,14.2,9.2,15.2,9.1z M15.5,10.4
			c-0.3,0.1-0.5,0.7-0.3,0.7c0.3,0.3,0.7,0.1,0.7-0.3C16.2,10.8,15.9,10.3,15.5,10.4z"/>
	</g>
	<path class="st0" d="M17.7,13.8c0.5,0,1,0,1.5,0c0,1.1,0,2.3,0,3.4c0,0.3-0.3,0.5-0.5,0.5c-0.3,0-0.7,0-1,0
		C17.7,16.6,17.7,15.2,17.7,13.8z"/>
</g>
</svg>
