<?xml version="1.0" encoding="utf-8"?>
<!-- Generator: Adobe Illustrator 24.3.0, SVG Export Plug-In . SVG Version: 6.00 Build 0)  -->
<svg version="1.1" id="Layer_1" xmlns="http://www.w3.org/2000/svg" xmlns:xlink="http://www.w3.org/1999/xlink" x="0px" y="0px"
	 viewBox="0 0 20 21" style="enable-background:new 0 0 20 21;" xml:space="preserve">
<style type="text/css">
	.st0{fill-rule:evenodd;clip-rule:evenodd;fill:#FFFFFF;}
</style>
<g>
	<path class="st0" d="M20,4.8c0-1.2-0.5-2.3-1.3-3.1c-0.8-0.8-2-1.3-3.1-1.3H4.4c-1.2,0-2.3,0.5-3.1,1.3C0.5,2.5,0,3.6,0,4.8V16
		c0,1.2,0.5,2.3,1.3,3.1c0.8,0.8,2,1.3,3.1,1.3h11.2c1.2,0,2.3-0.5,3.1-1.3c0.8-0.8,1.3-2,1.3-3.1V4.8z M10.5,6.8l-2.2,6.7
		c-0.1,0.4,0.1,0.8,0.4,0.9C9,14.5,9.4,14.3,9.5,14l2.2-6.7c0.1-0.4-0.1-0.8-0.4-0.9C11,6.3,10.6,6.5,10.5,6.8z M12.9,8.6l1.7,1.7
		l-1.7,1.7c-0.3,0.3-0.3,0.7,0,1c0.3,0.3,0.7,0.3,1,0l2.2-2.2c0.3-0.3,0.3-0.7,0-1l-2.2-2.2c-0.3-0.3-0.7-0.3-1,0
		C12.6,7.9,12.6,8.4,12.9,8.6L12.9,8.6z M6.2,7.7L3.9,9.9c-0.3,0.3-0.3,0.7,0,1l2.2,2.2c0.3,0.3,0.7,0.3,1,0c0.3-0.3,0.3-0.7,0-1
		l-1.7-1.7l1.7-1.7c0.3-0.3,0.3-0.7,0-1C6.9,7.4,6.4,7.4,6.2,7.7L6.2,7.7z"/>
</g>
</svg>
