<?xml version="1.0" encoding="utf-8"?>
<!-- Generator: Adobe Illustrator 24.3.0, SVG Export Plug-In . SVG Version: 6.00 Build 0)  -->
<svg version="1.1" id="Layer_1" xmlns="http://www.w3.org/2000/svg" xmlns:xlink="http://www.w3.org/1999/xlink" x="0px" y="0px"
	 viewBox="0 0 17.2 21" style="enable-background:new 0 0 17.2 21;" xml:space="preserve">
<style type="text/css">
	.st0{fill:#FFFFFF;}
</style>
<g>
	<path class="st0" d="M8.8,0L8.8,0c0.3,0,0.5,0,0.7,0.2c0.5,0.2,0.9,0.7,0.9,1.2c0,0.3,0,0.7,0,1c1.2,0.3,2.2,0.9,2.9,1.7
		c1,1,1.5,2.6,1.7,4c0,0.7,0,1.4,0,2.1c0,1.4,0,3,0,4.3c0,0.2,0.2,0.2,0.3,0.3c0.7,0.7,1.2,1.2,1.9,1.9c0,0.3,0,0.7,0,1
		c-5.7,0-11.5,0-17.2,0c0-0.3,0-0.7,0-1c0.7-0.7,1.4-1.4,2.2-2.3c0-1.7,0-3.5,0-5.2c0-0.5,0-1.2,0.2-1.7C2.6,6.2,3.3,5,4.1,4
		C5,3.1,6,2.6,7,2.3C7,2,7,1.8,7,1.4s0.2-0.9,0.5-1C7.9,0.2,8.4,0,8.8,0z"/>
	<path class="st0" d="M6.7,18.9c1.4,0,2.9,0,4.3,0c0,0.7-0.3,1.2-0.7,1.6C10,20.8,9.4,21,8.9,21H8.8c-0.5,0-1.2-0.3-1.5-0.7
		C6.9,20,6.7,19.4,6.7,18.9z"/>
</g>
</svg>
