<?xml version="1.0" encoding="utf-8"?>
<!-- Generator: Adobe Illustrator 24.3.0, SVG Export Plug-In . SVG Version: 6.00 Build 0)  -->
<svg version="1.1" id="Layer_1" xmlns="http://www.w3.org/2000/svg" xmlns:xlink="http://www.w3.org/1999/xlink" x="0px" y="0px"
	 viewBox="0 0 20 21" style="enable-background:new 0 0 20 21;" xml:space="preserve">
<style type="text/css">
	.st0{fill:#FFFFFF;}
</style>
<g>
	<path class="st0" d="M7,4.7c3-1,5.9-2,8.9-3c0.2-0.1,0.6,0,0.6,0.3c0.3,0.9,0.6,1.8,0.9,2.7C13.9,4.7,10.4,4.7,7,4.7z"/>
	<path class="st0" d="M0.1,5.9c0.1-0.2,0.3-0.2,0.5-0.2c5.3,0,10.7,0,16,0c0,1.3,0,2.6,0,3.9c-0.6,0-1.2-0.1-1.8,0.1
		C14,10,13.3,10.5,13,11.3c-0.4,0.8-0.4,1.7,0,2.5c0.4,0.8,1.1,1.4,1.9,1.6c0.6,0.2,1.1,0.1,1.7,0.1c0,1.3,0,2.6,0,3.9
		c-5.4,0-10.7,0-16.1,0c-0.2,0-0.5-0.2-0.5-0.4c0-0.2,0-0.4,0-0.6c0-4,0-8,0-11.9C0,6.3,0,6.1,0.1,5.9z"/>
	<path class="st0" d="M17.6,5.7c0.3,0,0.7,0,1,0c0.3,0,0.5,0.2,0.5,0.5c0,1.1,0,2.3,0,3.4c-0.5,0-1,0-1.5,0
		C17.6,8.3,17.6,7,17.6,5.7z"/>
	<g>
		<path class="st0" d="M15.2,10.6c0.3-0.1,0.6-0.1,0.9-0.1c1.1,0,2.3,0,3.4,0c0.3,0,0.6,0.2,0.5,0.5c0,1,0,1.9,0,2.9
			c0,0.3-0.2,0.5-0.5,0.5c-1.3,0-2.6,0-3.9,0c-1,0-1.8-0.8-1.9-1.8C13.6,11.8,14.2,10.8,15.2,10.6z M15.5,12
			c-0.3,0.1-0.5,0.6-0.2,0.8c0.2,0.3,0.7,0.1,0.8-0.2C16.2,12.3,15.8,11.9,15.5,12z"/>
	</g>
	<path class="st0" d="M17.6,15.4c0.5,0,1,0,1.5,0c0,1.1,0,2.3,0,3.4c0,0.3-0.2,0.5-0.5,0.5c-0.3,0-0.7,0-1,0
		C17.6,18,17.6,16.7,17.6,15.4z"/>
</g>
</svg>
