<?xml version="1.0" encoding="utf-8"?>
<!-- Generator: Adobe Illustrator 24.3.0, SVG Export Plug-In . SVG Version: 6.00 Build 0)  -->
<svg version="1.1" id="Layer_1" xmlns="http://www.w3.org/2000/svg" xmlns:xlink="http://www.w3.org/1999/xlink" x="0px" y="0px"
	 viewBox="0 0 69 66" style="enable-background:new 0 0 69 66;" xml:space="preserve">
<style type="text/css">
	.st0{fill:#FF9100;stroke:#FFFFFF;}
</style>
<path class="st0" d="M36.3,1.2L36.3,1.2L36.3,1.2c7.5,6.3,17.2,9.6,27.1,9.2c1.4-0.1,2.6,0.8,3,2l0.5-0.1l-0.5,0.1
	c1.7,5.4,2.2,11.2,1.5,16.8c-0.7,5.6-2.5,11.1-5.5,16c-2.9,4.9-6.8,9.3-11.5,12.7l0.3,0.4L50.9,58c-4.7,3.5-10.1,6-15.8,7.4
	c-0.5,0.1-1,0.1-1.5,0C27.9,64,22.5,61.5,17.8,58c-4.7-3.5-8.6-7.8-11.5-12.7l-0.4,0.3l0.4-0.3c-2.9-4.9-4.8-10.4-5.5-16l-0.5,0.1
	l0.5-0.1c-0.7-5.6-0.2-11.4,1.5-16.8c0.4-1.2,1.6-2.1,3-2c9.9,0.4,19.7-2.8,27.1-9.2l0,0l0,0c0.2-0.2,0.5-0.3,0.7-0.5l0,0
	c0.4-0.2,0.8-0.3,1.3-0.3h0c0.4,0,0.9,0.1,1.3,0.3l0,0C35.9,0.9,36.1,1,36.3,1.2z M34.4,0c-0.5,0-1,0.1-1.5,0.3
	c-0.3,0.1-0.6,0.3-0.8,0.5L34.4,0z M34.6,7.2L34.4,7l-0.3,0.2c-7.5,5.6-16.8,8.7-26.3,8.9l-0.4,0l-0.1,0.4c-0.9,4-1.1,8.1-0.7,12.2
	c0.6,4.9,2.2,9.6,4.7,13.9c2.5,4.3,5.9,8,10,11.1c3.8,2.8,8.2,4.9,12.8,6.2l0.1,0l0.1,0c4.6-1.3,9-3.4,12.8-6.2
	c4.1-3,7.5-6.8,10-11.1c2.5-4.3,4.1-9,4.7-13.9l-0.5-0.1l0.5,0.1c0.5-4.1,0.3-8.2-0.7-12.2L61.3,16l-0.4,0
	C51.4,15.9,42.2,12.8,34.6,7.2z"/>
<path class="st0" d="M22.1,35.6L22.1,35.6c-1.1-1.1-1.1-2.9,0-3.9c1.1-1.1,3-1.1,4.2,0l0,0l4.4,4.3l0.3,0.3l0.3-0.3l11.3-10.9
	l-0.3-0.4l0.3,0.4c1.1-1.1,3-1.1,4.2,0c1.1,1.1,1.1,2.9,0,3.9L33.1,42.2c-1.1,1.1-3,1.1-4.2,0L22.1,35.6z"/>
</svg>
