<svg width="56" height="56" viewBox="0 0 56 56" fill="none" xmlns="http://www.w3.org/2000/svg">
<circle cx="28" cy="28" r="28" fill="#CDCDCD"/>
<path d="M15.135 26V12.9091H18.689V23.1364H23.9816V26H15.135ZM40.5603 19.4545C40.5603 20.9119 40.2769 22.1413 39.7101 23.1428C39.1434 24.1399 38.3785 24.8963 37.4154 25.4119C36.4523 25.9233 35.3785 26.179 34.1938 26.179C33.0006 26.179 31.9225 25.9212 30.9594 25.4055C30.0006 24.8857 29.2378 24.1271 28.6711 23.13C28.1086 22.1286 27.8273 20.9034 27.8273 19.4545C27.8273 17.9972 28.1086 16.7699 28.6711 15.7727C29.2378 14.7713 30.0006 14.0149 30.9594 13.5036C31.9225 12.9879 33.0006 12.7301 34.1938 12.7301C35.3785 12.7301 36.4523 12.9879 37.4154 13.5036C38.3785 14.0149 39.1434 14.7713 39.7101 15.7727C40.2769 16.7699 40.5603 17.9972 40.5603 19.4545ZM36.904 19.4545C36.904 18.6705 36.7996 18.0099 36.5908 17.473C36.3863 16.9318 36.0816 16.5227 35.6768 16.2457C35.2762 15.9645 34.7819 15.8239 34.1938 15.8239C33.6057 15.8239 33.1093 15.9645 32.7045 16.2457C32.3039 16.5227 31.9992 16.9318 31.7904 17.473C31.5859 18.0099 31.4836 18.6705 31.4836 19.4545C31.4836 20.2386 31.5859 20.9013 31.7904 21.4425C31.9992 21.9794 32.3039 22.3885 32.7045 22.6697C33.1093 22.9467 33.6057 23.0852 34.1938 23.0852C34.7819 23.0852 35.2762 22.9467 35.6768 22.6697C36.0816 22.3885 36.3863 21.9794 36.5908 21.4425C36.7996 20.9013 36.904 20.2386 36.904 19.4545ZM21.571 35.2301C21.5156 35.0043 21.4283 34.8061 21.3089 34.6357C21.1896 34.4609 21.0405 34.3139 20.8615 34.1946C20.6868 34.071 20.4822 33.9794 20.2479 33.9197C20.0178 33.8558 19.7642 33.8239 19.4872 33.8239C18.8906 33.8239 18.3814 33.9666 17.9595 34.2521C17.5419 34.5376 17.2223 34.9489 17.0007 35.4858C16.7834 36.0227 16.6747 36.6705 16.6747 37.429C16.6747 38.196 16.7791 38.8523 16.9879 39.3977C17.1967 39.9432 17.5078 40.3608 17.9212 40.6506C18.3345 40.9403 18.848 41.0852 19.4616 41.0852C20.0028 41.0852 20.4524 41.0064 20.8104 40.8487C21.1726 40.6911 21.4432 40.4673 21.6222 40.1776C21.8011 39.8878 21.8906 39.5469 21.8906 39.1548L22.5043 39.2188H19.5128V36.6875H25.3168V38.5028C25.3168 39.696 25.0632 40.7166 24.5561 41.5646C24.0533 42.4084 23.3587 43.0561 22.4723 43.5078C21.5902 43.9553 20.5781 44.179 19.4361 44.179C18.1619 44.179 17.0433 43.9084 16.0803 43.3672C15.1172 42.826 14.3651 42.0547 13.8239 41.0533C13.2869 40.0518 13.0185 38.8608 13.0185 37.4801C13.0185 36.3977 13.1825 35.4389 13.5107 34.6037C13.843 33.7685 14.3033 33.0632 14.8913 32.4879C15.4794 31.9084 16.1591 31.4716 16.9304 31.1776C17.7017 30.8793 18.5284 30.7301 19.4105 30.7301C20.1861 30.7301 20.9063 30.8409 21.571 31.0625C22.2401 31.2798 22.8303 31.5909 23.3416 31.9957C23.8572 32.3963 24.2727 32.8714 24.5881 33.4212C24.9034 33.9709 25.0952 34.5739 25.1634 35.2301H21.571ZM42.6257 37.4545C42.6257 38.9119 42.3423 40.1413 41.7756 41.1428C41.2088 42.1399 40.4439 42.8963 39.4808 43.4119C38.5178 43.9233 37.4439 44.179 36.2592 44.179C35.0661 44.179 33.9879 43.9212 33.0249 43.4055C32.0661 42.8857 31.3033 42.1271 30.7365 41.13C30.174 40.1286 29.8928 38.9034 29.8928 37.4545C29.8928 35.9972 30.174 34.7699 30.7365 33.7727C31.3033 32.7713 32.0661 32.0149 33.0249 31.5036C33.9879 30.9879 35.0661 30.7301 36.2592 30.7301C37.4439 30.7301 38.5178 30.9879 39.4808 31.5036C40.4439 32.0149 41.2088 32.7713 41.7756 33.7727C42.3423 34.7699 42.6257 35.9972 42.6257 37.4545ZM38.9695 37.4545C38.9695 36.6705 38.8651 36.0099 38.6563 35.473C38.4517 34.9318 38.147 34.5227 37.7422 34.2457C37.3416 33.9645 36.8473 33.8239 36.2592 33.8239C35.6712 33.8239 35.1747 33.9645 34.7699 34.2457C34.3693 34.5227 34.0646 34.9318 33.8558 35.473C33.6513 36.0099 33.549 36.6705 33.549 37.4545C33.549 38.2386 33.6513 38.9013 33.8558 39.4425C34.0646 39.9794 34.3693 40.3885 34.7699 40.6697C35.1747 40.9467 35.6712 41.0852 36.2592 41.0852C36.8473 41.0852 37.3416 40.9467 37.7422 40.6697C38.147 40.3885 38.4517 39.9794 38.6563 39.4425C38.8651 38.9013 38.9695 38.2386 38.9695 37.4545Z" fill="white"/>
</svg>
