<?xml version="1.0" encoding="utf-8"?>
<!-- Generator: Adobe Illustrator 24.3.0, SVG Export Plug-In . SVG Version: 6.00 Build 0)  -->
<svg version="1.1" id="Layer_1" xmlns="http://www.w3.org/2000/svg" xmlns:xlink="http://www.w3.org/1999/xlink" x="0px" y="0px"
	 viewBox="0 0 97 119" style="enable-background:new 0 0 97 119;" xml:space="preserve">
<style type="text/css">
	.st0{fill:#FFE8CE;}
</style>
<path class="st0" d="M82.3,59.1c-0.8,0-1.7-0.2-2.3-0.7c-0.7-0.5-1.2-1.1-1.6-1.9c-0.3-0.8-0.4-1.6-0.2-2.4c0.2-0.8,0.6-1.6,1.2-2.2
	c5.9-5.9,9.2-14,9.2-22.4s-3.3-16.4-9.2-22.4c-0.8-0.8-1.2-1.9-1.2-3s0.5-2.2,1.2-3c0.8-0.8,1.8-1.2,3-1.2c1.1,0,2.2,0.4,3,1.2
	C92.8,8.7,97,18.9,97,29.5s-4.2,20.8-11.7,28.3C84.5,58.7,83.4,59.1,82.3,59.1z M17.7,57.9c0.8-0.8,1.2-1.9,1.2-3s-0.4-2.2-1.2-3
	c-5.9-5.9-9.2-14-9.2-22.4s3.3-16.4,9.2-22.4c0.8-0.8,1.2-1.9,1.2-3s-0.5-2.2-1.2-3c-0.8-0.8-1.8-1.2-3-1.2c-1.1,0-2.2,0.4-3,1.2
	C4.2,8.7,0,18.9,0,29.5s4.2,20.8,11.7,28.3c0.8,0.8,1.9,1.2,3,1.2C15.8,59.1,16.9,58.7,17.7,57.9z M31.1,48.6c0.8-0.8,1.2-1.9,1.2-3
	s-0.4-2.2-1.2-3c-3.5-3.5-5.4-8.2-5.4-13.1s2-9.7,5.4-13.1c0.8-0.8,1.2-1.9,1.2-3s-0.5-2.2-1.2-3c-0.8-0.8-1.8-1.2-3-1.2
	c-1.1,0-2.2,0.4-3,1.2c-5.1,5.1-7.9,11.9-7.9,19.1s2.8,14,7.9,19.1c0.8,0.8,1.9,1.2,3,1.2C29.3,49.9,30.3,49.4,31.1,48.6z
	 M71.8,48.6c5.1-5.1,7.9-11.9,7.9-19.1s-2.8-14-7.9-19.1C71.5,10,71,9.7,70.5,9.5s-1.1-0.3-1.6-0.3c-0.6,0-1.1,0.1-1.6,0.3
	s-1,0.5-1.4,0.9s-0.7,0.9-0.9,1.4c-0.2,0.5-0.3,1.1-0.3,1.6c0,0.6,0.1,1.1,0.3,1.6c0.2,0.5,0.5,1,0.9,1.4c3.5,3.5,5.4,8.2,5.4,13.1
	s-2,9.7-5.4,13.1C65.5,43,65.2,43.5,65,44c-0.2,0.5-0.3,1.1-0.3,1.6c0,0.6,0.1,1.1,0.3,1.6c0.2,0.5,0.5,1,0.9,1.4s0.9,0.7,1.4,0.9
	s1.1,0.3,1.6,0.3c0.6,0,1.1-0.1,1.6-0.3C71,49.4,71.5,49,71.8,48.6z M52.7,46.4v-4.2c0-1.1-0.4-2.2-1.2-3s-1.9-1.2-3-1.2
	s-2.2,0.4-3,1.2s-1.2,1.9-1.2,3v4.2c0,1.1,0.4,2.2,1.2,3s1.9,1.2,3,1.2s2.2-0.4,3-1.2C52.3,48.6,52.7,47.5,52.7,46.4z M56.8,49.6
	c-0.2-0.9-0.8-1.7-1.5-2.3s-1.6-0.9-2.6-0.9h-8.5c-0.9,0-1.8,0.3-2.6,0.9c-0.7,0.6-1.3,1.4-1.5,2.3l-5.9,22.2h28.5L56.8,49.6z
	 M73.7,112.9l-3.1-11.6H26.4l-3.1,11.6c-0.2,0.6-0.2,1.3-0.1,1.9s0.4,1.2,0.8,1.7s0.9,0.9,1.5,1.2c0.6,0.3,1.2,0.4,1.9,0.4h42.3
	c0.6,0,1.3-0.1,1.9-0.4s1.1-0.7,1.5-1.2s0.7-1.1,0.8-1.7C73.9,114.2,73.9,113.6,73.7,112.9z"/>
<path class="st0" d="M62,26.8c0,2.8-0.8,5.5-2.4,7.8c-1.5,2.3-3.7,4.1-6.3,5.2c-2.6,1.1-5.4,1.3-8.1,0.8S40,38.7,38,36.8
	c-2-2-3.3-4.5-3.8-7.2s-0.3-5.5,0.8-8.1s2.9-4.7,5.2-6.3c2.3-1.5,5-2.4,7.8-2.4c3.7,0,7.3,1.5,9.9,4.1S62,23.1,62,26.8z"/>
<polygon class="st0" points="64.5,77.5 31.5,77.5 28.1,90.2 67.9,90.2 "/>
</svg>
