<?xml version="1.0" encoding="utf-8"?>
<!-- Generator: Adobe Illustrator 24.3.0, SVG Export Plug-In . SVG Version: 6.00 Build 0)  -->
<svg version="1.1" id="Layer_1" xmlns="http://www.w3.org/2000/svg" xmlns:xlink="http://www.w3.org/1999/xlink" x="0px" y="0px"
	 viewBox="0 0 58 58" style="enable-background:new 0 0 58 58;" xml:space="preserve">
<style type="text/css">
	.st0{fill:#FF9100;stroke:#FFFFFF;stroke-width:1.5;}
</style>
<g>
	<path class="st0" d="M53.9,55.6L53.9,55.6L53.9,55.6c0.6,0,1.2-0.2,1.6-0.7h0c0.9-0.9,0.9-2.3,0-3.2c0,0,0,0,0,0l0,0v0L45,41.2
		c-0.9-0.9-2.4-0.9-3.3,0.1c-0.9,0.9-0.9,2.4,0.1,3.3l0,0l0,0L52.3,55l0,0C52.7,55.4,53.3,55.6,53.9,55.6z"/>
	<path class="st0" d="M27.2,51.1c13.2,0,23.9-10.7,23.9-23.9S40.4,3.4,27.2,3.4S3.4,14.1,3.4,27.3S14.1,51.1,27.2,51.1z M27.2,9.1
		c10,0,18.1,8.1,18.1,18.1s-8.1,18.1-18.1,18.1S9.1,37.3,9.1,27.3S17.2,9.1,27.2,9.1z"/>
</g>
</svg>
