<?xml version="1.0" encoding="utf-8"?>
<!-- Generator: Adobe Illustrator 24.3.0, SVG Export Plug-In . SVG Version: 6.00 Build 0)  -->
<svg version="1.1" id="Layer_1" xmlns="http://www.w3.org/2000/svg" xmlns:xlink="http://www.w3.org/1999/xlink" x="0px" y="0px"
	 viewBox="0 0 46 40" style="enable-background:new 0 0 46 40;" xml:space="preserve">
<style type="text/css">
	.st0{fill:#FFFFFF;fill-opacity:0.3;}
</style>
<g>
	<path class="st0" d="M30.5,27.2c-4.1,0-7.6-3.4-7.6-7.6s3.4-7.6,7.6-7.6h5.2c-0.4-3.8-3.6-6.9-7.6-6.9h-18c-4,0-7.4,3.2-7.4,7.4
		v14.1c0,4.1,3.4,7.4,7.6,7.4h18c4,0,7.2-3.1,7.6-6.9H30.5z"/>
	<path class="st0" d="M39.5,14.1h-8.6c-3.2,0-5.9,2.7-5.9,5.9s2.7,5.9,5.9,5.9h8.6c2.2,0,3.8-1.6,3.8-3.8v-4.3
		C43.3,15.7,41.6,14.1,39.5,14.1z"/>
</g>
</svg>
