<?xml version="1.0" encoding="utf-8"?>
<!-- Generator: Adobe Illustrator 24.3.0, SVG Export Plug-In . SVG Version: 6.00 Build 0)  -->
<svg version="1.1" id="Layer_1" xmlns="http://www.w3.org/2000/svg" xmlns:xlink="http://www.w3.org/1999/xlink" x="0px" y="0px"
	 viewBox="0 0 17 17" style="enable-background:new 0 0 17 17;" xml:space="preserve">
<style type="text/css">
	.st0{display:none;}
	.st1{display:inline;fill:#FFFFFF;}
</style>
<g class="st0">
	<path class="st1" d="M7.6,2.3v3c0,0.6-0.2,1.2-0.7,1.6c-0.4,0.4-1,0.7-1.6,0.7h-3c-0.6,0-1.2-0.2-1.6-0.7C0.2,6.5,0,5.9,0,5.3v-3
		c0-0.6,0.2-1.2,0.7-1.6C1.1,0.2,1.7,0,2.3,0h3c0.6,0,1.2,0.2,1.6,0.7C7.3,1.1,7.6,1.7,7.6,2.3z M14.7,0h-3c-0.6,0-1.2,0.2-1.6,0.7
		c-0.4,0.4-0.7,1-0.7,1.6v3c0,0.6,0.2,1.2,0.7,1.6c0.4,0.4,1,0.7,1.6,0.7h3c0.6,0,1.2-0.2,1.6-0.7c0.4-0.4,0.7-1,0.7-1.6v-3
		c0-0.6-0.2-1.2-0.7-1.6C15.9,0.2,15.3,0,14.7,0z M5.3,9.4h-3c-0.6,0-1.2,0.2-1.6,0.7c-0.4,0.4-0.7,1-0.7,1.6v3
		c0,0.6,0.2,1.2,0.7,1.6c0.4,0.4,1,0.7,1.6,0.7h3c0.6,0,1.2-0.2,1.6-0.7c0.4-0.4,0.7-1,0.7-1.6v-3c0-0.6-0.2-1.2-0.7-1.6
		C6.5,9.7,5.9,9.4,5.3,9.4z M14.7,9.4h-3c-0.6,0-1.2,0.2-1.6,0.7c-0.4,0.4-0.7,1-0.7,1.6v3c0,0.6,0.2,1.2,0.7,1.6
		c0.4,0.4,1,0.7,1.6,0.7h3c0.6,0,1.2-0.2,1.6-0.7c0.4-0.4,0.7-1,0.7-1.6v-3c0-0.6-0.2-1.2-0.7-1.6C15.9,9.7,15.3,9.4,14.7,9.4z"/>
</g>
<image style="overflow:visible;" width="512" height="512" xlink:href="C:\Users\hp\Downloads\list.png"  transform="matrix(3.320312e-02 0 0 3.320312e-02 0 0)">
</image>
</svg>
