<?xml version="1.0" standalone="no"?>
<!DOCTYPE svg PUBLIC "-//W3C//DTD SVG 20010904//EN"
 "http://www.w3.org/TR/2001/REC-SVG-20010904/DTD/svg10.dtd">
<svg version="1.0" xmlns="http://www.w3.org/2000/svg"
 width="512.000000pt" height="512.000000pt" viewBox="0 0 512.000000 512.000000"
 preserveAspectRatio="xMidYMid meet">

<g transform="translate(0.000000,512.000000) scale(0.100000,-0.100000)"
fill="#000000" stroke="none">
<path d="M1213 5100 c-17 -10 -37 -28 -42 -39 -6 -11 -11 -80 -11 -159 l0
-139 -149 -6 c-119 -5 -165 -12 -228 -32 -146 -46 -271 -152 -339 -287 -69
-136 -65 3 -62 -2090 l3 -1893 23 -62 c65 -173 209 -313 377 -366 l70 -22
1710 0 1710 0 73 24 c172 56 316 199 375 370 l22 66 3 1888 c3 2094 7 1948
-64 2089 -45 90 -153 200 -240 245 -90 48 -162 63 -326 70 l-147 6 -3 143 c-3
142 -3 143 -32 173 -51 54 -131 50 -176 -7 -18 -22 -20 -41 -20 -168 l0 -144
-1175 0 -1175 0 0 131 c0 151 -11 188 -65 213 -44 21 -73 20 -112 -4z m-53
-691 l0 -111 34 -34 c39 -39 86 -45 137 -18 44 22 59 67 59 179 l0 95 1175 0
1175 0 0 -111 0 -111 34 -34 c39 -39 86 -45 137 -18 44 22 59 67 59 179 l0 95
135 0 c111 0 144 -4 190 -21 73 -27 156 -104 192 -177 l28 -57 3 -1855 c2
-1304 -1 -1871 -9 -1907 -21 -106 -112 -207 -224 -249 -48 -18 -103 -19 -1725
-19 l-1675 0 -65 31 c-79 38 -140 97 -177 172 l-28 57 -3 1860 -2 1860 21 69
c18 59 30 78 82 131 89 89 133 104 310 104 l137 1 0 -111z"/>
<path d="M1884 3838 c-12 -7 -119 -107 -239 -221 l-218 -209 -106 105 c-58 58
-116 110 -128 116 -79 40 -175 -37 -158 -127 5 -29 35 -65 157 -189 83 -83
166 -159 185 -168 68 -33 88 -21 296 178 104 100 230 220 280 267 86 82 90 87
94 136 5 46 2 55 -24 84 -22 25 -39 33 -73 36 -26 3 -54 -1 -66 -8z"/>
<path d="M2605 3596 c-43 -19 -66 -49 -72 -93 -6 -49 28 -103 77 -120 26 -9
212 -12 705 -12 493 0 679 3 705 12 49 17 83 71 77 120 -6 45 -29 74 -74 93
-47 20 -1373 20 -1418 0z"/>
<path d="M1893 2680 c-12 -5 -122 -104 -243 -221 l-221 -212 -112 111 c-88 87
-120 112 -148 117 -56 10 -117 -28 -134 -83 -16 -54 3 -83 159 -240 83 -85
163 -160 178 -168 33 -17 75 -18 105 -1 23 13 497 461 544 515 80 90 -17 227
-128 182z"/>
<path d="M2578 2420 c-57 -45 -61 -125 -7 -176 l30 -29 714 0 714 0 30 29 c54
51 50 131 -7 176 -24 19 -44 20 -737 20 -693 0 -713 -1 -737 -20z"/>
<path d="M1895 1516 c-26 -12 -174 -147 -397 -364 l-67 -66 -113 110 c-121
118 -145 131 -207 111 -40 -13 -81 -67 -81 -104 0 -43 26 -76 187 -235 l159
-158 47 0 c46 0 51 3 145 89 53 49 184 174 290 278 184 180 193 190 192 226 0
52 -23 91 -64 111 -41 19 -52 19 -91 2z"/>
<path d="M2588 1264 c-51 -27 -73 -101 -44 -152 7 -13 26 -32 42 -43 28 -18
54 -19 727 -19 771 0 739 -3 771 64 20 42 20 69 1 106 -32 62 -6 60 -772 60
-598 -1 -702 -3 -725 -16z"/>
</g>
</svg>
