<svg width="20" height="25" viewBox="0 0 20 25" fill="none" xmlns="http://www.w3.org/2000/svg">
<g opacity="0.5">
<path d="M16.9693 12.1855C16.797 12.1855 16.6286 12.1343 16.4854 12.0386C16.3421 11.9429 16.2305 11.8068 16.1646 11.6477C16.0987 11.4885 16.0814 11.3134 16.115 11.1444C16.1486 10.9755 16.2316 10.8203 16.3533 10.6984C17.5732 9.47386 18.2581 7.81584 18.2581 6.08739C18.2581 4.35895 17.5732 2.70093 16.3533 1.47636C16.1947 1.31206 16.1069 1.092 16.1088 0.863587C16.1108 0.635173 16.2024 0.416676 16.364 0.255156C16.5255 0.0936365 16.744 0.00201779 16.9724 3.2932e-05C17.2008 -0.00195193 17.4209 0.0858558 17.5852 0.244544C19.1316 1.79584 20 3.89695 20 6.08739C20 8.27784 19.1316 10.3789 17.5852 11.9302C17.4218 12.0936 17.2003 12.1854 16.9693 12.1855ZM3.64665 11.9302C3.80997 11.7669 3.90172 11.5453 3.90172 11.3143C3.90172 11.0833 3.80997 10.8618 3.64665 10.6984C2.42683 9.47386 1.74194 7.81584 1.74194 6.08739C1.74194 4.35895 2.42683 2.70093 3.64665 1.47636C3.80534 1.31206 3.89315 1.092 3.89116 0.863587C3.88918 0.635173 3.79756 0.416676 3.63604 0.255156C3.47452 0.0936365 3.25602 0.00201779 3.02761 3.2932e-05C2.7992 -0.00195193 2.57914 0.0858558 2.41484 0.244544C0.868383 1.79584 0 3.89695 0 6.08739C0 8.27784 0.868383 10.3789 2.41484 11.9302C2.5782 12.0936 2.79975 12.1853 3.03074 12.1853C3.26174 12.1853 3.48329 12.0936 3.64665 11.9302ZM6.41867 10.0285C6.58199 9.86514 6.67374 9.6436 6.67374 9.4126C6.67374 9.1816 6.58199 8.96006 6.41867 8.79669C5.70024 8.0779 5.29666 7.10323 5.29666 6.08696C5.29666 5.07069 5.70024 4.09601 6.41867 3.37723C6.57736 3.21292 6.66517 2.99287 6.66319 2.76445C6.6612 2.53604 6.56958 2.31754 6.40806 2.15602C6.24654 1.9945 6.02805 1.90288 5.79963 1.9009C5.57122 1.89891 5.35116 1.98672 5.18686 2.14541C4.14179 3.19093 3.55472 4.60869 3.55472 6.08696C3.55472 7.56523 4.14179 8.98299 5.18686 10.0285C5.35022 10.1918 5.57177 10.2836 5.80277 10.2836C6.03377 10.2836 6.25531 10.1918 6.41867 10.0285ZM14.8131 10.0285C15.8582 8.98299 16.4453 7.56523 16.4453 6.08696C16.4453 4.60869 15.8582 3.19093 14.8131 2.14541C14.7328 2.0622 14.6367 1.99584 14.5304 1.95018C14.4241 1.90452 14.3098 1.88049 14.1941 1.87949C14.0784 1.87848 13.9637 1.90052 13.8567 1.94433C13.7496 1.98813 13.6523 2.05282 13.5705 2.13461C13.4887 2.21641 13.424 2.31367 13.3802 2.42073C13.3364 2.5278 13.3144 2.64251 13.3154 2.75818C13.3164 2.87385 13.3404 2.98817 13.3861 3.09445C13.4318 3.20074 13.4981 3.29686 13.5813 3.37723C14.2998 4.09601 14.7033 5.07069 14.7033 6.08696C14.7033 7.10323 14.2998 8.0779 13.5813 8.79669C13.4981 8.87706 13.4318 8.97318 13.3861 9.07947C13.3404 9.18575 13.3164 9.30007 13.3154 9.41574C13.3144 9.53141 13.3364 9.64612 13.3802 9.75318C13.424 9.86025 13.4887 9.95751 13.5705 10.0393C13.6523 10.1211 13.7496 10.1858 13.8567 10.2296C13.9637 10.2734 14.0784 10.2954 14.1941 10.2944C14.3098 10.2934 14.4241 10.2694 14.5304 10.2237C14.6367 10.1781 14.7328 10.1117 14.8131 10.0285ZM10.8712 9.57202V8.70087C10.8712 8.46982 10.7794 8.24824 10.616 8.08487C10.4526 7.92149 10.231 7.82971 10 7.82971C9.76896 7.82971 9.54737 7.92149 9.384 8.08487C9.22063 8.24824 9.12884 8.46982 9.12884 8.70087V9.57202C9.12884 9.80307 9.22063 10.0247 9.384 10.188C9.54737 10.3514 9.76896 10.4432 10 10.4432C10.231 10.4432 10.4526 10.3514 10.616 10.188C10.7794 10.0247 10.8712 9.80307 10.8712 9.57202ZM11.7127 10.2184C11.6632 10.033 11.5539 9.86919 11.4017 9.75231C11.2495 9.63543 11.063 9.57205 10.8712 9.57202H9.12884C8.93697 9.57205 8.75047 9.63543 8.5983 9.75231C8.44613 9.86919 8.33681 10.033 8.28731 10.2184L7.06594 14.799H12.9341L11.7127 10.2184ZM15.1973 23.2858L14.5605 20.8971H5.43949L4.80268 23.2858C4.76822 23.4148 4.76389 23.55 4.79003 23.681C4.81616 23.812 4.87205 23.9352 4.95339 24.0411C5.03473 24.147 5.13934 24.2328 5.25912 24.2919C5.3789 24.351 5.51066 24.3817 5.64422 24.3817H14.3558C14.4893 24.3817 14.6211 24.351 14.7409 24.2919C14.8607 24.2328 14.9653 24.147 15.0466 24.0411C15.1279 23.9352 15.1838 23.812 15.21 23.681C15.2361 23.55 15.2318 23.4148 15.1973 23.2858Z" fill="white"/>
<path d="M12.887 6.08745C12.887 6.65845 12.7176 7.21663 12.4004 7.69139C12.0832 8.16616 11.6323 8.5362 11.1048 8.75471C10.5772 8.97322 9.99675 9.03039 9.43673 8.91899C8.8767 8.8076 8.36228 8.53264 7.95853 8.12888C7.55477 7.72513 7.27981 7.21071 7.16841 6.65068C7.05702 6.09066 7.11419 5.51017 7.3327 4.98264C7.55121 4.45511 7.92125 4.00422 8.39602 3.68699C8.87078 3.36976 9.42896 3.20044 9.99996 3.20044C10.7654 3.20113 11.4993 3.50552 12.0406 4.04679C12.5819 4.58806 12.8863 5.32198 12.887 6.08745ZM13.3975 16.5413H6.60244L5.90552 19.1548H14.0944L13.3975 16.5413Z" fill="white"/>
</g>
</svg>
