<?xml version="1.0" encoding="utf-8"?>
<!-- Generator: Adobe Illustrator 24.3.0, SVG Export Plug-In . SVG Version: 6.00 Build 0)  -->
<svg version="1.1" id="Layer_1" xmlns="http://www.w3.org/2000/svg" xmlns:xlink="http://www.w3.org/1999/xlink" x="0px" y="0px"
	 viewBox="0 0 20 25" style="enable-background:new 0 0 20 25;" xml:space="preserve">
<style type="text/css">
	.st0{fill:#FFFFFF;}
</style>
<g>
	<path class="st0" d="M17,12.2c-0.2,0-0.3-0.1-0.5-0.1c-0.1-0.1-0.3-0.2-0.3-0.4c-0.1-0.2-0.1-0.3,0-0.5c0-0.2,0.1-0.3,0.2-0.4
		c1.2-1.2,1.9-2.9,1.9-4.6c0-1.7-0.7-3.4-1.9-4.6c-0.2-0.2-0.2-0.4-0.2-0.6c0-0.2,0.1-0.4,0.3-0.6C16.5,0.1,16.7,0,17,0
		c0.2,0,0.4,0.1,0.6,0.2C19.1,1.8,20,3.9,20,6.1c0,2.2-0.9,4.3-2.4,5.8C17.4,12.1,17.2,12.2,17,12.2L17,12.2z M3.6,11.9
		c0.2-0.2,0.3-0.4,0.3-0.6s-0.1-0.5-0.3-0.6C2.4,9.5,1.7,7.8,1.7,6.1c0-1.7,0.7-3.4,1.9-4.6c0.2-0.2,0.2-0.4,0.2-0.6
		c0-0.2-0.1-0.4-0.3-0.6C3.5,0.1,3.3,0,3,0C2.8,0,2.6,0.1,2.4,0.2C0.9,1.8,0,3.9,0,6.1c0,2.2,0.9,4.3,2.4,5.8
		c0.2,0.2,0.4,0.3,0.6,0.3C3.3,12.2,3.5,12.1,3.6,11.9L3.6,11.9z M6.4,10c0.2-0.2,0.3-0.4,0.3-0.6c0-0.2-0.1-0.5-0.3-0.6
		C5.7,8.1,5.3,7.1,5.3,6.1s0.4-2,1.1-2.7C6.6,3.2,6.7,3,6.7,2.8c0-0.2-0.1-0.4-0.3-0.6S6,1.9,5.8,1.9C5.6,1.9,5.4,2,5.2,2.1
		c-1,1-1.6,2.5-1.6,3.9S4.1,9,5.2,10c0.2,0.2,0.4,0.3,0.6,0.3S6.3,10.2,6.4,10L6.4,10z M14.8,10c1-1,1.6-2.5,1.6-3.9
		s-0.6-2.9-1.6-3.9C14.7,2.1,14.6,2,14.5,2c-0.1,0-0.2-0.1-0.3-0.1c-0.1,0-0.2,0-0.3,0.1c-0.1,0-0.2,0.1-0.3,0.2
		c-0.1,0.1-0.1,0.2-0.2,0.3c0,0.1-0.1,0.2-0.1,0.3c0,0.1,0,0.2,0.1,0.3c0,0.1,0.1,0.2,0.2,0.3c0.7,0.7,1.1,1.7,1.1,2.7
		s-0.4,2-1.1,2.7c-0.1,0.1-0.1,0.2-0.2,0.3c0,0.1-0.1,0.2-0.1,0.3c0,0.1,0,0.2,0.1,0.3c0,0.1,0.1,0.2,0.2,0.3
		c0.1,0.1,0.2,0.1,0.3,0.2c0.1,0,0.2,0.1,0.3,0.1c0.1,0,0.2,0,0.3-0.1C14.6,10.2,14.7,10.1,14.8,10z M10.9,9.6V8.7
		c0-0.2-0.1-0.5-0.3-0.6c-0.2-0.2-0.4-0.3-0.6-0.3c-0.2,0-0.5,0.1-0.6,0.3C9.2,8.2,9.1,8.5,9.1,8.7v0.9c0,0.2,0.1,0.5,0.3,0.6
		c0.2,0.2,0.4,0.3,0.6,0.3c0.2,0,0.5-0.1,0.6-0.3C10.8,10,10.9,9.8,10.9,9.6z M11.7,10.2c0-0.2-0.2-0.3-0.3-0.5
		c-0.2-0.1-0.3-0.2-0.5-0.2H9.1c-0.2,0-0.4,0.1-0.5,0.2C8.4,9.9,8.3,10,8.3,10.2l-1.2,4.6h5.9L11.7,10.2z M15.2,23.3l-0.6-2.4H5.4
		l-0.6,2.4c0,0.1,0,0.3,0,0.4c0,0.1,0.1,0.3,0.2,0.4c0.1,0.1,0.2,0.2,0.3,0.3c0.1,0.1,0.3,0.1,0.4,0.1h8.7c0.1,0,0.3,0,0.4-0.1
		c0.1-0.1,0.2-0.1,0.3-0.3c0.1-0.1,0.1-0.2,0.2-0.4C15.2,23.5,15.2,23.4,15.2,23.3L15.2,23.3z"/>
	<path class="st0" d="M12.9,6.1c0,0.6-0.2,1.1-0.5,1.6c-0.3,0.5-0.8,0.8-1.3,1.1C10.6,9,10,9,9.4,8.9C8.9,8.8,8.4,8.5,8,8.1
		C7.6,7.7,7.3,7.2,7.2,6.7C7.1,6.1,7.1,5.5,7.3,5c0.2-0.5,0.6-1,1.1-1.3c0.5-0.3,1-0.5,1.6-0.5c0.8,0,1.5,0.3,2,0.8
		S12.9,5.3,12.9,6.1z M13.4,16.5H6.6l-0.7,2.6h8.2L13.4,16.5z"/>
</g>
</svg>
