<?xml version="1.0" encoding="utf-8"?>
<!-- Generator: Adobe Illustrator 24.3.0, SVG Export Plug-In . SVG Version: 6.00 Build 0)  -->
<svg version="1.1" id="Layer_1" xmlns="http://www.w3.org/2000/svg" xmlns:xlink="http://www.w3.org/1999/xlink" x="0px" y="0px"
	 viewBox="0 0 17 22" style="enable-background:new 0 0 17 22;" xml:space="preserve">
<style type="text/css">
	.st0{fill-rule:evenodd;clip-rule:evenodd;fill:#FFFFFF;enable-background:new    ;}
</style>
<path class="st0" d="M11,0.3C11,0.1,10.8,0,10.7,0H3C1.4,0,0,1.4,0,3v15.4c0,1.7,1.4,3,3,3h11c1.7,0,3-1.4,3-3V7.6
	c0-0.2-0.1-0.3-0.3-0.3h-4.9c-0.5,0-0.8-0.4-0.8-0.8V0.3z M11.8,11c0.5,0,0.8,0.4,0.8,0.8s-0.4,0.8-0.8,0.8H5.2
	c-0.5,0-0.8-0.4-0.8-0.8S4.8,11,5.2,11H11.8z M11.8,15.4c0.5,0,0.8,0.4,0.8,0.8c0,0.5-0.4,0.8-0.8,0.8H5.2c-0.5,0-0.8-0.4-0.8-0.8
	c0-0.5,0.4-0.8,0.8-0.8H11.8z"/>
</svg>
