<svg width="17" height="22" viewBox="0 0 17 22" fill="none" xmlns="http://www.w3.org/2000/svg">
<path opacity="0.5" fill-rule="evenodd" clip-rule="evenodd" d="M10.9677 0.274194C10.9677 0.122762 10.845 0 10.6935 0H3.01613C1.35037 0 0 1.35037 0 3.01613V18.371C0 20.0367 1.35037 21.3871 3.01613 21.3871H13.9839C15.6497 21.3871 17 20.0367 17 18.371V7.56452C17 7.41309 16.8773 7.29032 16.7258 7.29032H11.7903C11.336 7.29032 10.9677 6.92204 10.9677 6.46774V0.274194ZM11.7903 10.9677C12.2446 10.9677 12.6129 11.336 12.6129 11.7903C12.6129 12.2446 12.2446 12.6129 11.7903 12.6129H5.20968C4.75538 12.6129 4.3871 12.2446 4.3871 11.7903C4.3871 11.336 4.75538 10.9677 5.20968 10.9677H11.7903ZM11.7903 15.3548C12.2446 15.3548 12.6129 15.7231 12.6129 16.1774C12.6129 16.6317 12.2446 17 11.7903 17H5.20968C4.75538 17 4.3871 16.6317 4.3871 16.1774C4.3871 15.7231 4.75538 15.3548 5.20968 15.3548H11.7903Z" fill="white"/>
</svg>
