<svg width="17" height="17" viewBox="0 0 17 17" fill="none" xmlns="http://www.w3.org/2000/svg">
<path d="M7.57811 2.27349V5.30473C7.57811 5.90768 7.33859 6.48594 6.91223 6.91229C6.48588 7.33864 5.90763 7.57817 5.30468 7.57817H2.27343C1.67048 7.57817 1.09222 7.33864 0.665873 6.91229C0.239522 6.48594 0 5.90768 0 5.30473V2.27349C0 1.67054 0.239522 1.09228 0.665873 0.66593C1.09222 0.239579 1.67048 5.75411e-05 2.27343 5.75411e-05H5.30468C5.90763 5.75411e-05 6.48588 0.239579 6.91223 0.66593C7.33859 1.09228 7.57811 1.67054 7.57811 2.27349ZM14.7267 0H11.6955C11.0925 0 10.5143 0.239522 10.0879 0.665873C9.66158 1.09222 9.42206 1.67048 9.42206 2.27343V5.30468C9.42206 5.90763 9.66158 6.48588 10.0879 6.91223C10.5143 7.33859 11.0925 7.57811 11.6955 7.57811H14.7267C15.3297 7.57811 15.9079 7.33859 16.3343 6.91223C16.7606 6.48588 17.0002 5.90763 17.0002 5.30468V2.27343C17.0002 1.67048 16.7606 1.09222 16.3343 0.665873C15.9079 0.239522 15.3297 0 14.7267 0ZM5.30493 9.42175H2.27368C1.67073 9.42175 1.09248 9.66127 0.666124 10.0876C0.239773 10.514 0.000251364 11.0922 0.000251364 11.6952V14.7264C0.000251364 15.3294 0.239773 15.9076 0.666124 16.334C1.09248 16.7603 1.67073 16.9999 2.27368 16.9999H5.30493C5.90788 16.9999 6.48613 16.7603 6.91249 16.334C7.33884 15.9076 7.57836 15.3294 7.57836 14.7264V11.6952C7.57836 11.0922 7.33884 10.514 6.91249 10.0876C6.48613 9.66127 5.90788 9.42175 5.30493 9.42175ZM14.7267 9.42189H11.6955C11.0925 9.42189 10.5143 9.66141 10.0879 10.0878C9.66158 10.5141 9.42206 11.0924 9.42206 11.6953V14.7266C9.42206 15.3295 9.66158 15.9078 10.0879 16.3341C10.5143 16.7605 11.0925 17 11.6955 17H14.7267C15.3297 17 15.9079 16.7605 16.3343 16.3341C16.7607 15.9078 17.0002 15.3295 17.0002 14.7266V11.6953C17.0002 11.0924 16.7607 10.5141 16.3343 10.0878C15.9079 9.66141 15.3297 9.42189 14.7267 9.42189Z" fill="white"/>
</svg>
